<?xml version="1.0" standalone="no"?>
<!DOCTYPE svg PUBLIC "-//W3C//DTD SVG 1.1//EN" "http://www.w3.org/Graphics/SVG/1.1/DTD/svg11.dtd" >
<!--
2013-9-30: Created.
-->
<svg>
<metadata>
Created by iconfont
</metadata>
<defs>

<font id="iconfont" horiz-adv-x="1024" >
  <font-face
    font-family="iconfont"
    font-weight="500"
    font-stretch="normal"
    units-per-em="1024"
    ascent="896"
    descent="-128"
  />
    <missing-glyph />
    
    <glyph glyph-name="x" unicode="x" horiz-adv-x="1001"
d="M281 543q-27 -1 -53 -1h-83q-18 0 -36.5 -6t-32.5 -18.5t-23 -32t-9 -45.5v-76h912v41q0 16 -0.5 30t-0.5 18q0 13 -5 29t-17 29.5t-31.5 22.5t-49.5 9h-133v-97h-438v97zM955 310v-52q0 -23 0.5 -52t0.5 -58t-10.5 -47.5t-26 -30t-33 -16t-31.5 -4.5q-14 -1 -29.5 -0.5
t-29.5 0.5h-32l-45 128h-439l-44 -128h-29h-34q-20 0 -45 1q-25 0 -41 9.5t-25.5 23t-13.5 29.5t-4 30v167h911zM163 247q-12 0 -21 -8.5t-9 -21.5t9 -21.5t21 -8.5q13 0 22 8.5t9 21.5t-9 21.5t-22 8.5zM316 123q-8 -26 -14 -48q-5 -19 -10.5 -37t-7.5 -25t-3 -15t1 -14.5
t9.5 -10.5t21.5 -4h37h67h81h80h64h36q23 0 34 12t2 38q-5 13 -9.5 30.5t-9.5 34.5q-5 19 -11 39h-368zM336 498v228q0 11 2.5 23t10 21.5t20.5 15.5t34 6h188q31 0 51.5 -14.5t20.5 -52.5v-227h-327z" />
    

    
    <glyph glyph-name="shezhi" unicode="&#58981;" d="M993 208q2-12-1-29t-10-34.5-17-31.5-22-20-21-6-20 4q-10 3-25 5.5t-30.5 1-31-6.5-26.5-17q-24-25-28-57t9-61q10-20-3-40-6-8-19-16.5t-28.5-15.5-32.5-11-30-4q-9 0-17 7t-11 15h-1q-11 31-37.5 53.5t-61.5 22.5q-34 0-61.5-22.5t-38.5-52.5q-5-12-15-17.5t-22-5.5q-14 0-31.5 5t-35 12.5-31.5 17.5-21 20q-5 7-5.5 16.5t7.5 26.5q11 23 8.5 52.5t-25.5 54.5q-14 15-34 19.5t-38 3.5q-21-1-43-8-14-4-28 2-11 4-20.5 18.5t-17 32-11.5 36-2 30.5q3 22 20 28 30 12 54 39.5t24 61.5q0 35-24 61t-54 38q-9 3-15 14.5t-6 23.5q0 13 4 29t10.5 31 15 27.5 18.5 18.5q8 5 15.5 4t16.5-4q30-12 62.5-7.5t57.5 28.5q12 12 17.5 29.5t7 34.5 0 31-2.5 20q-2 6-3.5 14t1.5 14q6 14 21.5 24.5t33.5 17.5 35 10.5 27 3.5q13 0 20.5-8.5t10.5-17.5q11-27 36-47.5t59-20.5q35 0 62 19.5t38 49.5q4 8 12.5 16.5t17.5 8.5q14 0 30.5-4t32.5-11 29.5-18 21.5-24q5-8 3-17.5t-4-13.5q-13-29-8-61t29-56 59-26.5 65 11.5q8 5 19.5 4t19.5-9q15-14 26.5-42.5t15.5-57.5q2-17-5.5-26.5t-15.5-12.5q-31-11-53-38.5t-22-62.5q0-34 18.5-59.5t48.5-36.5q7-4 12-8 11-9 15-23zM528 118q45 0 85 17t69.5 47 46.5 69.5 17 84.5-17 84.5-46.5 69-69.5 46.5-85 17-84.5-17-69-46.5-46.5-69-17-84.5 17-84.5 46.5-69.5 69-47 84.5-17z"  horiz-adv-x="1000" />

    
    <glyph glyph-name="shanchu" unicode="&#58984;" d="M841 612q30 0 49.5-10t31-25 16-32.5 4.5-32.5q0-7-0.5-11t-0.5-7v-6h-66v-525q0-20-8-38.5t-23-32.5-36.5-22.5-49.5-8.5h-446q-26 0-49 8t-39.5 22.5-26 35-9.5 46.5v515h-62q-1 1-1 5-1 5-1 31 0 13 6 29t18 29.5 31 22.5 45 9h89v61q0 26 18 44.5t44 18.5h313q35 0 48.5-18.5t13.5-44.5v-62q21-1 45-1h46zM375 612h313v63h-313v-63zM344-21q32 0 32 41v464h-62v-464q0-21 6.5-31t23.5-10zM533-20q17 0 23 9.5t6 30.5v464h-62v-464q0-40 33-40zM721-18q18 0 24 9.5t6 30.5v462h-63v-462q0-40 33-40z"  horiz-adv-x="1000" />

    
    <glyph glyph-name="cuowu" unicode="&#58883;" d="M827.392 700.416q65.536-65.536 97.792-147.456t32.256-167.936-32.256-167.936-97.792-147.456-147.456-98.304-167.936-32.768-168.448 32.768-147.968 98.304-98.304 147.456-32.768 167.936 32.768 167.936 98.304 147.456 147.968 97.792 168.448 32.256 167.936-32.256 147.456-97.792zM720.896 180.224q21.504 21.504 18.944 49.152t-24.064 49.152l-107.52 107.52 107.52 107.52q21.504 21.504 24.064 49.152t-18.944 49.152-51.712 21.504-51.712-21.504l-107.52-106.496-104.448 104.448q-21.504 20.48-49.152 23.04t-49.152-17.92q-21.504-21.504-21.504-52.224t21.504-52.224l104.448-104.448-104.448-104.448q-21.504-21.504-21.504-51.712t21.504-51.712 49.152-18.944 49.152 24.064l104.448 104.448 107.52-107.52q21.504-21.504 51.712-21.504t51.712 21.504z"  horiz-adv-x="1024" />

    
    <glyph glyph-name="yingyong" unicode="&#58920;" d="M371.733 705.828q25.773 0 44.112-17.843t18.339-43.617v-247.822q0-25.773-18.339-44.112t-44.112-18.339h-247.822q-25.773 0-43.617 18.339t-17.843 44.112v247.822q0 25.773 17.843 43.617t43.617 17.843h247.822zM371.733 210.184q25.773 0 44.112-17.843t18.339-43.617v-248.813q0-25.773-18.339-43.617t-44.112-17.843h-247.822q-25.773 0-43.617 17.843t-17.843 43.617v248.813q0 25.773 17.843 43.617t43.617 17.843h247.822zM868.368 210.184q25.773 0 43.617-17.843t17.843-43.617v-248.813q0-25.773-17.843-43.617t-43.617-17.843h-247.822q-25.773 0-44.112 17.843t-18.339 43.617v248.813q0 25.773 18.339 43.617t44.112 17.843h247.822zM1006.157 596.786q19.826-19.826 19.826-46.591t-19.826-45.599l-184.379-184.379q-19.826-19.826-46.095-19.826t-46.095 19.826l-184.379 184.379q-18.834 18.834-18.834 45.599t18.834 46.591l184.379 184.379q19.826 18.834 46.095 18.834t46.095-18.834z"  horiz-adv-x="1026" />

    
    <glyph glyph-name="jianhao" unicode="&#58955;" d="M284.3149 296.3355h186.5361764555978 24.31850910969712 39.97453622042759 14.656663705219776 196.19702249666963c11.038 0 19.9873 8.9479 19.9873 19.9864s-8.9493 19.9864-19.9873 19.9864H549.801776268517h-14.656663705219776-39.97453622042759-24.31850910969712H284.31489141416915c-11.039 0-19.9873-8.9479-19.9873-19.9864S273.2759 296.3355 284.3149 296.3355z"  horiz-adv-x="1000" />

    
    <glyph glyph-name="uploading" unicode="&#58958;" d="M994 352h-68c-16.568 0-30-13.432-30-30v-418h-768v418c0 16.568-13.432 30-30 30h-68c-16.568 0-30-13.432-30-30v-516c0-16.568 13.432-30 30-30h964c16.568 0 30 13.432 30 30v516c0 16.568-13.432 30-30 30zM448 544v-416c0-17.672 14.328-32 32-32h64c17.672 0 32 14.328 32 32v416h192l-256 256-256-256h192z"  horiz-adv-x="1024" />

    
    <glyph glyph-name="xiangxia" unicode="&#58886;" d="M932.580352 496.955136c4.315136 4.294656 6.69184 10.012672 6.69184 16.101376 0 6.04672-2.349056 11.737088-6.614016 16.023552-8.836096 8.877056-23.247872 8.912896-32.124928 0.077824L532.020224 162.411264 165.303296 529.117952c-8.856576 8.854528-23.268352 8.854528-32.123904 0-4.289536-4.289536-6.652928-9.995264-6.652928-16.064512 0-6.0672 2.363392-11.771904 6.652928-16.062464l398.042112-398.030848 0.722944-0.72192L932.580352 496.955136z"  horiz-adv-x="1024" />

    
    <glyph glyph-name="unfold" unicode="&#58938;" d="M890.336 565.088c-12.576 12.416-32.8 12.352-45.248-0.192l-327.84-330.848-332.416 329.44c-12.576 12.448-32.8 12.352-45.28-0.192-12.448-12.576-12.352-32.832 0.192-45.28l353.312-350.112c0.544-0.544 1.248-0.672 1.792-1.184 0.128-0.128 0.16-0.288 0.288-0.416 6.24-6.176 14.4-9.28 22.528-9.28 8.224 0 16.48 3.168 22.72 9.472l350.112 353.312c12.48 12.576 12.384 32.832-0.16 45.28z"  horiz-adv-x="1024" />

    
    <glyph glyph-name="huancun" unicode="&#58933;" d="M960 371.104l-187.52 74.56 0 120.32c0 3.712-2.24 7.04-5.696 8.448L515.328 674.4c-2.176 0.832-4.544 0.832-6.72 0L257.28 574.432C253.824 573.088 251.52 569.696 251.52 565.984l0-120.32L64 371.104C60.544 369.76 58.304 366.368 58.304 362.656l0-251.84c0-3.712 2.24-7.04 5.696-8.448l444.672-176.768C509.696-74.784 510.848-75.04 512-75.04s2.304 0.192 3.328 0.64L960 102.368c3.456 1.344 5.696 4.736 5.696 8.448L965.696 362.656C965.696 366.368 963.456 369.76 960 371.104zM508.672 315.232C509.696 314.848 510.848 314.592 512 314.592s2.304 0.192 3.328 0.64l238.912 94.976 0-79.232L512 234.72 269.696 331.04 269.696 410.272 508.672 315.232z"  horiz-adv-x="1024" />

    
    <glyph glyph-name="jiantouyou" unicode="&#58926;" d="M697.125 276.735l-205.92 225.369h-116.714l205.92-225.369-205.92-205.905h116.714l205.92 205.905zM697.125 276.735z"  horiz-adv-x="1024" />

    
    <glyph glyph-name="jiantouzuo" unicode="&#58944;" d="M374.492 276.735l205.92-205.905h116.714l-205.92 205.905 205.92 225.369h-116.714l-205.92-225.369zM374.492 276.735z"  horiz-adv-x="1024" />

    
    <glyph glyph-name="jiancegaojing" unicode="&#58901;" d="M501.391462 330.254048M593.5194-8.87065c-23.165532-40.119743-74.469043-53.862745-114.59043-30.699186-40.120363 23.164582-53.868022 74.462922-30.703514 114.580618L593.5194-8.87065zM778.119122 457.77642c-10.928335 18.817578-10.959035 42.140773-0.042981 60.968583 0.019444 0.032746 0.03377 0.062422 0.055261 0.094144 16.982462 29.41596 6.902483 67.031673-22.515705 84.013439-29.419212 16.983813-67.034419 6.90527-84.018928-22.509666-0.01842-0.031722-0.034794-0.063445-0.053214-0.094144-10.861817-18.886139-31.033032-30.500665-52.824207-30.445406-157.893406 0.399089-220.270568-265.004583-367.256106-233.41819l-30.484517-52.8026 508.124069-293.352211 30.485541 52.801577C658.742493 134.521155 857.413252 321.24179 778.119122 457.77642zM737.338699 571.196609c11.915866-6.881734 16.014375-22.170952 9.136452-34.087353-6.879969-11.916401-22.172884-16.012695-34.089773-9.131985-11.915866 6.878664-16.015398 22.169929-9.133382 34.086329C710.132989 573.981025 725.42488 578.075273 737.338699 571.196609zM335.440213 265.755058c93.826696 36.013215 151.088141 145.489582 218.651631 198.549032 36.776062 28.878724 79.160071 40.311101 128.393349 11.885701 48.714441-28.124548 60.617003-70.195735 53.901793-117.129674-12.168633-85.044932-78.350603-189.374068-62.627882-288.627606L335.440213 265.755058z"  horiz-adv-x="1024" />

    
    <glyph glyph-name="fold" unicode="&#58943;" d="M887.328 278.848l-353.376 350.144c-0.512 0.512-1.216 0.672-1.76 1.152-0.128 0.128-0.16 0.32-0.288 0.448-12.576 12.416-32.832 12.352-45.28-0.192l-350.112-353.344c-12.448-12.576-12.352-32.8 0.192-45.248 6.24-6.176 14.4-9.28 22.528-9.28 8.224 0 16.48 3.168 22.72 9.472l327.84 330.816 332.48-329.408c6.24-6.176 14.368-9.28 22.528-9.28 8.256 0 16.48 3.168 22.72 9.472 12.448 12.544 12.352 32.8-0.192 45.248z"  horiz-adv-x="1024" />

    
    <glyph glyph-name="shuju" unicode="&#58934;" d="M565.262576 138.257246 521.542842 179.499555 462.696596 234.998567 462.696596-50.511026 568.760237-50.511026 568.760237 134.779028ZM312.441477 152.081089 312.441477-50.511026 418.503071-50.511026 418.503071 264.515834ZM218.379171 52.34455 162.197614 105.337485 162.197614-50.511026 268.247952-50.511026 268.247952 105.225945ZM835.166749 424.394125 763.201717 348.105624 763.201717-50.511026 869.270475-50.511026 869.270475 392.231611ZM612.951715 188.814712 612.951715-50.511026 719.009216-50.511026 719.009216 301.25048ZM618.02322 745.680549 889.934097 720.780439 926.854984 451.299915 835.166749 539.290945 565.262576 253.160205 521.542842 294.397399 439.780677 371.50966 424.586626 385.850274 218.379171 167.25058 92.906481 285.596965 299.097564 504.207915 356.282984 564.831644 413.473521 625.45128 554.157657 492.749956 709.697129 657.667006Z"  horiz-adv-x="1024" />

    
    <glyph glyph-name="ttpodicon" unicode="&#58884;" d="M510.63184 748.543759c-246.570745 0-447.159226-200.588481-447.159226-447.165366 0-246.564605 200.588481-447.178669 447.159226-447.178669 246.609631 0 447.196065 200.614064 447.196065 447.178669C957.827905 547.955278 757.24147 748.543759 510.63184 748.543759zM788.397051 425.906571 454.622198 92.136835c-8.012488-8.018627-21.0095-8.018627-29.021987 0l-43.785226 43.785226c-0.002047 0.002047-0.004093 0.005117-0.007163 0.007163L236.950643 280.788449c-8.032954 8.018627-8.032954 21.00643 0 29.025057l43.765783 43.785226c8.013511 8.018627 21.0095 8.018627 29.021987 0l130.370233-130.367163 275.480168 275.484262c8.035 8.007371 21.0095 8.007371 29.042453 0l43.765783-43.785226C796.409538 446.927327 796.409538 433.925199 788.397051 425.906571z"  horiz-adv-x="1024" />

    
    <glyph glyph-name="shangyi" unicode="&#58976;" d="M511.961 508.596l-205.873-205.92 132.393 0.076 0.378-235.163 146.471-0.183-0 235.359 132.58-0.089-205.949 205.92zM511.961 508.596z"  horiz-adv-x="1024" />

    
    <glyph glyph-name="xiayi" unicode="&#58977;" d="M512.039 67.405l205.872 205.919-132.393-0.076-0.378 235.163-146.471 0.184v-235.361l-132.578 0.089 205.949-205.917zM512.039 67.405z"  horiz-adv-x="1024" />

    
    <glyph glyph-name="zhidi" unicode="&#58978;" d="M512.040 114.485l205.872 205.919-132.393-0.076-0.378 235.163-146.471 0.187v-235.363l-132.58 0.089 205.95-205.919zM306.090 74.77h411.822v-52.75h-411.822v52.75z"  horiz-adv-x="1024" />

    
    <glyph glyph-name="zhiding" unicode="&#58979;" d="M511.96 462.363l-205.872-205.919 132.393 0.076 0.378-235.163 146.471-0.185-0 235.361 132.58-0.089-205.95 205.919zM306.089 554.828h411.822v-52.75h-411.822v52.75z"  horiz-adv-x="1024" />

    
    <glyph glyph-name="deploy" unicode="&#58935;" d="M740.909 135.396v635.315c-24.469 11.625-49.957 21.452-76.304 29.289v-283.090h-635.31c-11.625-24.47-21.454-49.957-29.294-76.304h283.091v-635.317c24.472-11.625 49.96-21.449 76.304-29.289v283.093h635.315c11.625 24.469 21.449 49.957 29.289 76.303l-283.091 0z"  horiz-adv-x="1024" />

    
    <glyph glyph-name="msnui-downmini" unicode="&#58885;" d="M683.986 411.241l-173.203-173.203-173.204 173.203c0 0 0 0 0 0l-48.111-48.111c0 0 0 0 0 0l180.899-180.901c0 0 0.001 0 0.001-0.001l32.716-32.716c0.023-0.023 0.047-0.041 0.070-0.062l7.629-7.629 7.614 7.614c0.027 0.027 0.056 0.049 0.083 0.076l213.617 213.617c0 0 0 0 0 0l-48.112 48.112z"  horiz-adv-x="1024" />

    
    <glyph glyph-name="xinxi" unicode="&#58894;" d="M957.468213 599.502281c-0.116657 0.23536 0 0.470721-0.116657 0.822738 0 0 0 0-0.11768 0.11768-1.762133 4.465708-4.935406 8.107655-8.754385 10.988262-0.881067 0.644683-1.703805 1.233084-2.6432 1.819438-4.054339 2.410909-8.579399 4.113691-13.630439 4.113691L89.912287 617.364091c-5.052063 0-9.516748-1.702782-13.57211-4.113691-0.998747-0.586354-1.762133-1.174756-2.6432-1.819438-3.759627-2.880607-6.992251-6.522554-8.812713-10.988262 0-0.11768-0.11768-0.11768-0.11768-0.11768-0.116657-0.352017 0-0.586354-0.116657-0.822738-0.99977-2.937912-1.763157-5.933129-1.763157-9.16473L62.886771 11.024469c0-15.040555 12.103666-27.084868 27.02654-27.084868l421.145759 0 421.147806 0c15.040555 0 27.084868 12.044314 27.084868 27.084868L959.291744 590.337551C959.289698 593.568129 958.526311 596.564369 957.468213 599.502281M863.697549 563.251659 511.058047 233.23234 158.419568 563.251659 863.697549 563.251659zM511.058047 38.051009 116.997156 38.051009 116.997156 527.882104 492.551554 176.359029c5.228071-4.817726 11.92561-7.284917 18.505469-7.284917 6.640234 0 13.279445 2.467191 18.566868 7.284917l375.553375 351.523075 0-489.830071L511.058047 38.052033z"  horiz-adv-x="1024" />

    
    <glyph glyph-name="tuichu" unicode="&#58900;" d="M161.304268-85.992121c-53.165874 0-96.420003 48.559972-96.420003 108.247376L64.884264 570.219351c0 62.932308 43.25413 114.13241 96.420003 114.13241l453.524191 0c53.165874 0 96.420003-51.199079 96.420003-114.131387l0-58.635445c0-15.655562-12.736069-28.392654-28.39163-28.392654s-28.39163 12.737092-28.39163 28.392654l0 58.635445c0 26.738991-17.781992 48.492434-39.637766 48.492434L161.304268 618.712809c-21.855774 0-39.635719-21.753443-39.635719-48.492434l0-542.080086c0-26.738991 17.780969-48.492434 39.636742-48.492434l453.524191 0c21.855774 0 39.637766 21.754466 39.637766 48.493457l0 58.635445c0 15.655562 12.736069 28.39163 28.39163 28.39163s28.39163-12.736069 28.39163-28.39163l0-58.635445c0-62.933331-43.25413-114.13241-96.420003-114.13241L161.304268-85.991098zM772.998851 94.301128c-7.662517 0-14.843056 3.168156-20.219507 8.921183-10.868535 11.623735-10.866489 30.516014 0.00614 42.114167l109.334127 116.966968c0.085958 0.092098 0.160659 0.171915 0.066515 0.38681-0.093121 0.215918-0.201591 0.215918-0.327458 0.215918L386.362047 262.906174c-15.655562 0-28.392654 13.446243-28.392654 29.973662 0 16.528442 12.737092 29.974685 28.392654 29.974685l475.494575 0c0.125867 0 0.234337 0 0.327458 0.214894 0.093121 0.214894 0.019443 0.294712-0.066515 0.38681L752.779344 440.402727c-10.861372 11.616572-10.860349 30.517037 0.001023 42.132586 5.375427 5.752004 12.555967 8.92016 20.218484 8.92016 7.661494 0 14.842033-3.168156 20.218484-8.921183l156.451238-167.369915c5.480828-5.89015 8.302083-13.793144 7.967462-22.286586 0.333598-8.493441-2.486634-16.395412-7.958252-22.276353L793.217335 103.222311C787.840884 97.469284 780.660344 94.301128 772.998851 94.301128z"  horiz-adv-x="1024" />

    
    <glyph glyph-name="jishuzhichi" unicode="&#58906;" d="M847.2576 441.6192c-18.3296 43.3152-44.544 82.2272-77.9264 115.6096-33.3824 33.3824-72.2944 59.5968-115.6096 77.9264-44.8512 18.944-92.5696 28.5696-141.6192 28.5696-49.152 0-96.768-9.6256-141.6192-28.5696-43.3152-18.3296-82.2272-44.544-115.6096-77.9264-33.3824-33.3824-59.5968-72.2944-77.9264-115.6096-18.944-44.8512-28.5696-92.4672-28.5696-141.6192 0-49.152 9.6256-96.768 28.5696-141.6192 18.3296-43.3152 44.544-82.2272 77.9264-115.6096 33.3824-33.3824 72.2944-59.5968 115.6096-77.9264 44.8512-18.944 92.4672-28.5696 141.6192-28.5696 49.152 0 96.768 9.6256 141.6192 28.5696 43.3152 18.3296 82.2272 44.544 115.6096 77.9264s59.5968 72.2944 77.9264 115.6096c18.944 44.8512 28.5696 92.5696 28.5696 141.6192C875.8272 349.152 866.2016 396.768 847.2576 441.6192zM753.3568 541.3568C798.6176 496.096 829.3376 440.288 843.776 379.872L675.5328 379.872c-17.8176 36.864-47.8208 65.8432-83.6608 83.6608L591.872 631.776C652.288 617.3376 708.096 586.6176 753.3568 541.3568zM853.0944 300.512c0-19.2512-1.6384-38.4-4.7104-56.832L684.8512 243.68c5.9392 17.408 9.1136 36.9664 9.1136 56.832 0 19.8656-3.1744 38.4-9.1136 56.832l163.6352 0C851.5584 338.912 853.0944 319.7632 853.0944 300.512zM512 140.768c-87.7568 0-159.232 71.3728-159.232 159.232 0 87.7568 71.3728 159.232 159.232 159.232 87.7568 0 159.232-71.3728 159.232-159.232C671.232 212.2432 599.7568 140.768 512 140.768zM339.1488 243.68 175.616 243.68c-3.072 18.432-4.7104 37.5808-4.7104 56.832 0 19.2512 1.6384 38.4 4.7104 56.832l163.6352 0c-5.9392-18.432-9.1136-36.9664-9.1136-56.832C330.0352 280.6464 333.312 261.088 339.1488 243.68zM569.344 636.384l0-163.6352c-18.432 5.9392-37.4784 9.1136-57.344 9.1136-19.8656 0-38.912-3.1744-57.344-9.1136L454.656 636.384c19.456 3.072 38.0928 4.7104 57.344 4.7104C531.2512 641.0944 549.888 639.5584 569.344 636.384zM270.6432 541.3568C315.904 586.6176 371.712 617.3376 432.128 631.776l0-168.2432c-35.84-17.8176-65.8432-46.7968-83.6608-83.6608L180.224 379.872C194.6624 440.288 225.3824 496.096 270.6432 541.3568zM270.6432 59.1552C225.3824 104.416 194.6624 159.712 180.224 221.152l168.2432 0c17.8176-36.864 47.8208-66.8672 83.6608-84.6848L432.128-31.776C371.712-17.3376 315.904 13.8944 270.6432 59.1552zM454.656-36.384 454.656 127.1488c18.432-5.9392 37.4784-9.1136 57.344-9.1136 19.8656 0 38.912 3.1744 57.344 9.1136l0-163.6352c-19.456-3.072-38.0928-4.7104-57.344-4.7104C492.7488-41.0944 474.112-39.5584 454.656-36.384zM753.3568 59.1552C708.096 13.8944 652.288-17.3376 591.872-31.776L591.872 136.4672c35.84 17.8176 65.8432 47.8208 83.6608 84.6848L843.776 221.152C829.3376 159.712 798.6176 104.416 753.3568 59.1552z"  horiz-adv-x="1024" />

    
    <glyph glyph-name="rili" unicode="&#58888;" d="M823.143924-81.977691l-623.623263 0c-39.694047 0-71.928193 32.228005-71.928193 71.928193L127.592468 541.599524c0 39.746236 32.234145 71.974241 71.928193 71.974241l95.928816 0 0-47.967478L175.559946 565.606287l0-599.6165 671.544693 0L847.104639 565.559215l-119.94172 0 0 48.01455 95.934956 0c39.746236 0 71.974241-32.228005 71.974241-71.974241l0-551.602973C895.072117-49.749686 862.844112-81.977691 823.143924-81.977691L823.143924-81.977691zM631.274012 397.697089l95.934956 0 0-71.928193-95.934956 0L631.274012 397.697089 631.274012 397.697089zM727.208968 85.885458l-95.934956 0 0 71.927169 95.934956 0L727.208968 85.885458 727.208968 85.885458zM631.274012 277.75537l95.934956 0 0-71.928193-95.934956 0L631.274012 277.75537 631.274012 277.75537zM667.239132 493.632045c-19.850094 0-35.96512 16.114003-35.96512 35.964096l0 119.94172c0 19.850094 16.067954 35.964096 35.96512 35.964096s35.964096-16.114003 35.964096-35.964096l0-119.94172C703.202205 509.746048 687.088202 493.632045 667.239132 493.632045L667.239132 493.632045zM463.364815 397.697089l95.934956 0 0-71.928193-95.934956 0L463.364815 397.697089 463.364815 397.697089zM559.299771 85.885458l-95.934956 0 0 71.927169 95.934956 0L559.299771 85.885458 559.299771 85.885458zM463.364815 277.75537l95.934956 0 0-71.928193-95.934956 0L463.364815 277.75537 463.364815 277.75537zM415.397337 613.573765l191.869912 0 0-47.967478-191.869912 0L415.397337 613.573765 415.397337 613.573765zM295.449477 157.859699l95.941096 0 0-71.928193-95.941096 0L295.449477 157.859699 295.449477 157.859699zM295.449477 277.75537l95.941096 0 0-71.928193-95.941096 0L295.449477 277.75537 295.449477 277.75537zM295.449477 397.697089l95.941096 0 0-71.928193-95.941096 0L295.449477 397.697089 295.449477 397.697089zM355.4275 493.632045c-19.850094 0-35.964096 16.114003-35.964096 35.964096l0 119.94172c0 19.850094 16.114003 35.964096 35.964096 35.964096 19.837814 0 35.964096-16.114003 35.964096-35.964096l0-119.94172C391.390573 509.746048 375.323643 493.632045 355.4275 493.632045L355.4275 493.632045zM355.4275 493.632045"  horiz-adv-x="1024" />

    
    <glyph glyph-name="paixuxiajiantou" unicode="&#58881;" d="M402.78501 308.123741 402.78501 308.123741 402.701084 734.289895l217.888722 0 0.057167-425.94357 205.147865-0.117982L511.331029-30.329368 197.413344 307.904805l205.287741 0.218936L402.78501 308.123741zM402.78501 308.123741"  horiz-adv-x="1024" />

    
    <glyph glyph-name="paixushangjiantou" unicode="&#58882;" d="M402.701084 395.836786 197.413344 396.055722 511.331029 734.289895l314.463809-338.557712-205.147865-0.117982-0.057167-425.94357L402.701084-30.329368l0.083925 426.166155 0 0L402.701084 395.836786zM402.78501 395.836786"  horiz-adv-x="1024" />

    
    <glyph glyph-name="mimaxiugai" unicode="&#58891;" d="M743.786-124.754 312.108-124.754c-91.701 0-163.535 54.757-163.535 124.658L148.573 263.936c0 69.894 71.834 124.65 163.535 124.65l431.678 0c91.699 0 163.519-54.757 163.519-124.65l0-264.031C907.305-69.997 835.485-124.754 743.786-124.754zM312.108 331.807c-57.351 0-105.839-31.085-105.839-67.872l0-264.031c0-36.794 48.488-67.881 105.839-67.881l431.678 0c57.365 0 105.823 31.087 105.823 67.881L849.609 263.936c0 36.786-48.458 67.872-105.823 67.872L312.108 331.808zM527.938 237.658c-35.504 0-64.307-28.327-64.307-63.271 0-25.185 15.099-46.761 36.749-56.935l0-69.592c0-14.967 12.369-27.117 27.558-27.117 15.203 0 27.572 12.15 27.572 27.117l0 69.592c21.652 10.188 36.75 31.75 36.75 56.935C592.261 209.331 563.459 237.658 527.938 237.658L527.938 237.658zM295.435 335.378c-13.404 0-25.399 9.229-28.233 22.639-21.081 100.383-7.557 188.188 39.163 253.922 41.501 58.387 107.039 96.731 184.555 107.967 69.435 10.091 138.629-7.075 194.916-48.244 56.3-41.171 92.929-101.454 103.14-169.725 2.324-15.514-8.575-29.935-24.35-32.222-15.698-2.25-30.407 8.432-32.73 23.96-7.976 53.268-36.554 100.294-80.47 132.413-43.945 32.133-97.954 45.485-152.095 37.65-61.637-8.94-113.365-38.89-145.676-84.331-37.379-52.618-47.74-125.191-29.927-209.884 3.223-15.358-6.822-30.377-22.416-33.549C299.333 335.569 297.369 335.378 295.435 335.378z"  horiz-adv-x="1024" />

    
    <glyph glyph-name="1029yuanjiaoxiangshang" unicode="&#58887;" d="M940.848185 112.894601 529.763572 523.979214c-9.991562 9.990538-26.188452 9.990538-36.178991 0L82.499969 112.894601c-9.990538-9.991562-9.990538-26.188452 0-36.178991 9.991562-9.991562 26.188452-9.991562 36.178991 0l392.994606 392.994606L904.668171 76.715611c4.995781-4.995781 11.541871-7.492648 18.090007-7.492648s13.094226 2.496867 18.090007 7.492648C950.838723 86.706149 950.838723 102.90304 940.848185 112.894601z"  horiz-adv-x="1024" />

    
    <glyph glyph-name="1030yuanjiaoxiangxia" unicode="&#58890;" d="M940.849208 523.979214c-9.991562 9.990538-26.188452 9.990538-36.178991 0L511.673565 130.984608 118.679983 523.979214c-9.991562 9.990538-26.188452 9.990538-36.178991 0-9.990538-9.990538-9.990538-26.188452 0-36.178991l411.083589-411.084613c4.995781-4.995781 11.541871-7.492648 18.090007-7.492648s13.094226 2.496867 18.090007 7.492648l411.085636 411.084613C950.839747 497.790762 950.839747 513.988676 940.849208 523.979214z"  horiz-adv-x="1024" />

    
    <glyph glyph-name="xiangshangjiantou" unicode="&#58889;" d="M971.663798 81.086821 532.367744 520.382876 93.071689 81.086821 57.468205 116.683486 532.367744 591.586435 1007.267283 116.683486Z"  horiz-adv-x="1064" />

    
    <glyph glyph-name="tongji" unicode="&#58936;" d="M916.659785-76.698454 104.554776-76.698454c-23.223934 0-42.006719 18.806321-42.006719 42.007743L62.548056 637.369727c0 23.199375 18.782785 41.99444 42.006719 41.99444 23.176862 0 42.006719-18.794042 42.006719-41.99444l0-532.050662 0-98.005105 770.099313 0c23.176862 0 42.007743-18.804275 42.007743-42.004673C958.666504-57.892133 939.836647-76.698454 916.659785-76.698454M818.626028 49.317611l-84.013439 0c-23.176862 0-42.007743 18.795065-42.007743 41.993416l0 294.02657c0 23.212678 18.829857 42.004673 42.007743 42.004673l84.013439 0c23.224957 0 42.008766-18.795065 42.008766-42.004673l0-294.02657C860.63377 68.112676 841.852008 49.317611 818.626028 49.317611M580.602959 49.317611l-84.013439 0c-23.200398 0-42.007743 18.795065-42.007743 41.993416L454.581778 553.358335c0 23.200398 18.807345 42.005696 42.007743 42.005696l84.013439 0c23.199375 0 42.006719-18.805298 42.006719-42.005696l0-462.046285C622.609679 68.112676 603.803357 49.317611 580.602959 49.317611M342.578868 49.317611l-84.013439 0c-23.223934 0-42.006719 18.795065-42.006719 41.993416l0 84.012416c0 23.198352 18.782785 42.004673 42.006719 42.004673l84.013439 0c23.200398 0 42.007743-18.806321 42.007743-42.004673l0-84.012416C384.585587 68.112676 365.779266 49.317611 342.578868 49.317611"  horiz-adv-x="1024" />

    
    <glyph glyph-name="iconlove" unicode="&#58896;" d="M515.416 59.295l-149.418 153.308-203.641 168.303c-55.835 45.396-91.702 114.543-92.223 192.047-0.925 137.738 110.008 250.086 247.741 251.010 77.504 0.516 146.969-34.322 193.022-89.463 45.3 55.753 114.373 91.522 191.877 92.042 137.733 0.919 250.166-109.924 251.091-247.669 0.444-67.648-26.069-129.283-69.545-174.395l-216.878-187.499-152.025-157.684zM515.416 59.295z"  horiz-adv-x="1024" />

    
    <glyph glyph-name="yonghu" unicode="&#58897;" d="M599.377558-146.454168 424.620395-146.454168c-165.80528 0-296.769031 0-296.769031 86.024236L127.851365-43.251691c0 161.188122 133.11474 292.257274 296.769031 292.257274l174.756139 0c163.619498 0 296.769031-131.101897 296.769031-292.257274l0-17.178241C896.145565-146.454168 758.588653-146.454168 599.377558-146.454168L599.377558-146.454168 599.377558-146.454168zM422.988222 200.527474c-137.625474 0-249.607918-109.935832-249.607918-245.098207l0-17.491373c0-35.046191 144.254451-35.046191 249.607918-35.046191l177.98467 0c87.207178 0 249.644757 0 249.644757 35.046191l0 17.491373c0 135.162376-112.017236 245.098207-249.644757 245.098207L422.988222 200.527474 422.988222 200.527474 422.988222 200.527474zM503.254314 284.052796c-129.923048 0-235.554854 104.140849-235.554854 232.119615 0 128.015605 105.631806 232.119615 235.554854 232.119615 129.923048 0 235.553831-104.104009 235.553831-232.119615C738.808144 388.193645 633.107777 284.052796 503.254314 284.052796L503.254314 284.052796 503.254314 284.052796zM316.246129 516.902028c0-101.224426 83.909062-183.571922 187.008184-183.571922 103.132892 0 187.041954 82.347496 187.041954 183.571922 0 101.190657-83.909062 183.502337-187.041954 183.502337C400.120398 700.404366 316.246129 618.092685 316.246129 516.902028L316.246129 516.902028 316.246129 516.902028zM316.246129 499.135386"  horiz-adv-x="1024" />

    
    <glyph glyph-name="iconfont29" unicode="&#58892;" d="M521.344 611.104c70.976 66.816 156.096 109.184 261.376 94.848 144.32-19.84 222.272-120.32 207.488-266.112-9.664-94.4-57.728-169.152-123.456-232.96-102.08-99.584-207.68-195.52-309.248-295.616C522.24-123.552 497.92-118.496 465.28-86.752c-105.92 103.232-216.512 201.664-320.128 307.072C75.52 291.04 25.344 374.752 32.704 481.248 44.352 651.232 188.736 752.352 351.68 698.08 408.128 679.264 458.944 643.68 521.344 611.104z"  horiz-adv-x="1024" />

    
    <glyph glyph-name="xinxi1" unicode="&#58893;" d="M877.671111 496.542815c0.464593 3.800889-0.018963 7.704889-1.493333 11.323259-5.317926 25.402074-23.242667 38.296889-53.44 38.296889L249.386667 546.162963c-26.346667 0-54.820741-9.809778-68.660148-29.184-1.118815-0.884148-2.17363-1.884444-3.137185-3.012741-4.490667-5.268148-6.135704-12.058074-5.067852-18.430815-0.190815-1.733926-0.316444-3.498667-0.316444-5.320296l0-358.055111c0-37.084444 40.64237-78.320593 77.182815-78.320593l573.351111 0c36.540444 0 55.131259 41.236148 55.131259 78.320593L877.870222 490.213926C877.869037 492.388741 877.800296 494.49363 877.671111 496.542815zM249.386667 501.400889l573.351111 0c0.101926 0 0.195556 0 0.295111 0L525.037037 260.382815 228.233481 500.424296C234.992593 501.690074 243.288889 501.400889 249.386667 501.400889zM822.738963 98.600296 249.386667 98.600296c-12.163556 0-33.078519 21.216-33.078519 33.557333L216.308148 452.769185l294.288593-238.910815c4.135111-3.653926 9.295407-5.463704 14.440296-5.463704s10.289778 1.809778 14.440296 5.463704l294.288593 238.897778 0-320.598519C833.764741 119.817481 834.902519 98.600296 822.738963 98.600296z"  horiz-adv-x="1024" />

    
    <glyph glyph-name="shangchuan" unicode="&#58969;" d="M778.854209 114.015122c30.108738 0.327458 57.752332 12.467963 77.113285 32.074509l0 0c19.851117 20.344351 31.991622 47.495734 31.991622 78.259388 0 26.989701-9.268084 51.437509-25.512047 71.043033-16.080234 19.279089-39.130206 32.730449-65.543785 37.407981-16.821107 3.197832-28.876678 17.554818-28.876678 34.043351l0 0.164752c0 65.38108-26.333762 124.855636-69.483514 167.676907-42.658565 42.822294-102.21601 69.482491-167.349449 69.482491-48.483224 0-93.354178-14.436804-130.680295-38.637995-38.637995-26.004257-68.989257-62.017472-87.612407-105.003496-5.332449-13.044084-17.555841-20.835538-31.009248-21.328771-42.329061-2.131547-79.983659-21.00029-107.874893-50.368154-27.399023-28.876678-44.13315-68.252477-44.13315-111.565958 0-45.283346 18.210757-86.135776 47.579645-115.503641l0.49221 0c29.368888-29.696346 69.974701-47.743374 114.764813-47.743374l14.437827 0 0.820692 0 88.187505 0 10.253528 0c19.114336 0 34.782178-15.589047 34.782178-34.538631 0-18.784832-15.668865-34.370809-34.782178-34.370809l-10.253528 0-88.187505 0-0.820692 0L292.72032 45.106706c-63.904449 0-122.147968 25.594935-163.902954 68.251454-41.837874 41.756009-67.842131 99.753935-67.842131 163.905 0 61.196781 23.954575 117.389594 63.165622 158.980851 34.700313 36.504402 81.624019 61.688991 134.289496 70.057589 24.282033 47.414893 60.46 87.038332 104.429421 115.995851 48.235584 31.993668 106.316397 50.615794 168.33387 50.615794 84.165912 0 160.786986-34.290991 216.322837-89.581248 49.387827-49.631374 82.20014-115.91501 88.517009-189.5818 30.845519-10.335393 58.32436-29.859052 78.916351-54.305837 26.332738-31.174 42.00058-71.533196 42.00058-115.095341 0-49.628304-20.097734-94.420463-52.338019-126.988206l-0.246617 0c-28.136827-28.29851-66.116837-46.841841-108.365056-51.517327-2.543939-0.245593-5.169743-0.737804-7.794523-0.737804l-9.187243 0-1.231037 0L624.630708 45.105682l-1.475608 0c-18.952654 0-34.209126 15.584953-34.209126 34.370809 0 18.949584 15.256472 34.538631 34.209126 34.538631l1.475608 0L778.854209 114.015122 778.854209 114.015122zM494.524488 410.320595 494.524488 410.320595l-0.490164 0L328.89931 245.268468c-8.204869-7.874341-8.204869-20.919449 0-29.449729 8.120958-7.792477 21.245883-7.792477 29.367865 0l129.940444 129.941468 0-472.925053c0-11.32186 9.270131-20.839631 20.754696-20.839631s20.837584 9.517771 20.837584 20.839631L529.7999 345.760207l130.187061-129.941468c7.957229-7.792477 20.919449-7.792477 29.287023 0 7.792477 8.53028 7.792477 21.575388 0 29.449729L523.400143 410.320595l-0.984421 0.983397 0 0.493234-0.820692 0.491187-0.410346 0.491187c-0.737804 0.49221-1.64036 0.985444-2.213411 1.723248l-0.902556 0-0.49221 0.49221c-1.067308 0.574075-1.723248 0.738827-2.87242 0.738827l0 0-2.050706 0.49221-1.639337 0.491187-1.477654 0-0.738827 0-1.476631 0-1.968841-0.491187-1.723248-0.49221-0.575098 0c-0.819668 0-1.722224-0.164752-2.623757-0.738827l-0.574075-0.49221-0.655939 0c-0.821715-0.737804-1.725294-1.231037-2.297322-1.723248l-0.411369-0.491187-0.984421-0.491187 0-0.493234L494.524488 410.320595 494.524488 410.320595zM508.798587 416.718305 508.798587 416.718305l0.163729 0 0.575098 0L508.798587 416.718305 508.798587 416.718305z"  horiz-adv-x="1024" />

    
    <glyph glyph-name="jiankong" unicode="&#58902;" d="M123.570875 781.006102 123.570875 781.006102 123.570875 781.006102ZM686.499801 256.811362M900.916219 746.858374 123.082758 746.858374c-32.001855 0-57.94062-25.939789-57.94062-57.94062l0-777.834484c0-31.999808 25.938766-57.939597 57.94062-57.939597l777.834484 0c31.999808 0 57.939597 25.939789 57.939597 57.939597L958.856839 688.91673C958.856839 720.918585 932.91705 746.858374 900.916219 746.858374L900.916219 746.858374zM209.886753 645.568457 814.115294 645.568457c23.998577 0 43.456744-19.454074 43.456744-43.456744l0-270.066879L740.048391 332.044834l-50.991348 56.062853c-4.706185 6.977925-12.235672 12.021801-21.227464 13.313214-1.595334 0.229221-3.179412 0.331551-4.745071 0.318248-7.451716 0.01842-14.933107-2.63399-20.88261-8.042163-6.124488-5.573949-9.485025-13.045107-10.021238-20.701484l-52.984748-176.029132-76.428693 335.140966c-3.442402 14.440897-16.503882 24.072255-30.770817 23.725354-12.685927 0.308015-24.77015-7.269567-29.591969-19.788695l-94.939279-314.517253-91.746564 100.147908c-6.134721 6.695492-14.537088 10.069333-22.953781 10.026354-0.01535 0-0.029676 0-0.048095 0l-66.284659 0L166.432055 602.111712C166.432055 626.114382 185.884083 645.568457 209.886753 645.568457L209.886753 645.568457zM814.115294-45.57255 209.886753-45.57255c-24.00267 0-43.455721 19.458167-43.455721 43.455721L166.431032 269.902518l52.901861 0 118.371968-129.213897c6.198166-6.764054 14.712073-10.133801 23.222911-10.021238 12.635785-0.25378 24.656563 7.318686 29.459962 19.798928l77.486792 256.695337 76.847226-336.976778c3.393283-14.239306 16.137539-23.792892 30.17116-23.729447 15.220656-0.121773 28.567639 11.016915 30.792307 26.499537l71.228251 236.652861 25.915229-28.483728c2.618641-2.882654 5.66093-5.145184 8.93858-6.798846 4.519943-2.589988 9.753131-4.076852 15.331173-4.076852l130.47154 0 0-272.365224C857.572038-26.115406 838.113871-45.57255 814.115294-45.57255L814.115294-45.57255zM814.115294-45.57255"  horiz-adv-x="1024" />

    
    <glyph glyph-name="rili1" unicode="&#58880;" d="M940.15029-62.514407c0-7.322779-3.078105-14.626115-9.270131-20.193925-6.196119-5.567809-14.290471-8.358365-22.388916-8.358365L132.445498-91.066697c-8.094352 0-16.188704 2.790556-22.361287 8.358365-6.195096 5.567809-9.273201 12.871145-9.273201 20.193925L100.81101 629.292772c0 7.326872 3.078105 14.622022 9.273201 20.194948 6.172583 5.563716 14.266935 8.361435 22.361287 8.361435l97.478102 0 0-28.795836c0-47.743374 43.370787-86.429465 96.845699-86.429465 53.500495 0 96.842629 38.686091 96.842629 86.429465l0 28.795836 193.71698 0 0-28.795836c0-47.743374 43.342134-86.429465 96.842629-86.429465 53.474912 0 96.822163 38.686091 96.822163 86.429465l0 28.795836 97.501638 0c8.094352 0 16.188704-2.797719 22.384823-8.361435 6.192026-5.572926 9.270131-12.868075 9.270131-20.194948L940.15029-62.514407 940.15029-62.514407 940.15029-62.514407 940.15029-62.514407zM875.593995 456.213831 165.367305 456.213831l0-489.667366 710.22669 0L875.593995 456.213831 875.593995 456.213831 875.593995 456.213831 875.593995 456.213831zM326.766228 312.195763l-96.842629 0L229.9236 398.601692l96.842629 0L326.766228 312.195763 326.766228 312.195763 326.766228 312.195763zM326.766228 168.173602l-96.842629 0 0 86.408999 96.842629 0L326.766228 168.173602 326.766228 168.173602 326.766228 168.173602zM326.766228 24.135068l-96.842629 0 0 86.429465 96.842629 0L326.766228 24.135068 326.766228 24.135068 326.766228 24.135068zM488.188688 312.195763l-96.866165 0L391.322523 398.601692l96.866165 0L488.188688 312.195763 488.188688 312.195763 488.188688 312.195763zM488.188688 168.173602l-96.866165 0 0 86.408999 96.866165 0L488.188688 168.173602 488.188688 168.173602 488.188688 168.173602zM488.188688 24.135068l-96.866165 0 0 86.429465 96.866165 0L488.188688 24.135068 488.188688 24.135068 488.188688 24.135068zM649.590682 312.195763l-96.845699 0L552.744983 398.601692l96.845699 0L649.590682 312.195763 649.590682 312.195763 649.590682 312.195763zM649.590682 168.173602l-96.845699 0 0 86.408999 96.845699 0L649.590682 168.173602 649.590682 168.173602 649.590682 168.173602zM649.590682 24.135068l-96.845699 0 0 86.429465 96.845699 0L649.590682 24.135068 649.590682 24.135068 649.590682 24.135068zM810.993698 312.195763l-96.822163 0L714.171536 398.601692l96.822163 0L810.993698 312.195763 810.993698 312.195763 810.993698 312.195763zM810.993698 168.173602l-96.822163 0 0 86.408999 96.822163 0L810.993698 168.173602 810.993698 168.173602 810.993698 168.173602zM810.993698 24.135068l-96.822163 0 0 86.429465 96.822163 0L810.993698 24.135068 810.993698 24.135068 810.993698 24.135068zM713.152323 571.440156c-35.092239 0-63.561641 25.387203-63.561641 56.69321l0 59.403948c0 31.326473 28.469402 56.717769 63.561641 56.717769 35.095309 0 63.560618-25.391297 63.560618-56.717769l0-59.403948C776.712941 596.827359 748.247632 571.440156 713.152323 571.440156L713.152323 571.440156 713.152323 571.440156zM325.770552 571.440156c-35.088146 0-63.556525 25.387203-63.556525 56.69321l0 59.403948c0 31.326473 28.464285 56.717769 63.556525 56.717769 35.096333 0 63.564711-25.391297 63.564711-56.717769l0-59.403948C389.335263 596.827359 360.866884 571.440156 325.770552 571.440156L325.770552 571.440156 325.770552 571.440156zM325.770552 571.440156"  horiz-adv-x="1024" />

    
    <glyph glyph-name="zhuji2" unicode="&#58914;" d="M881.92 211.968h-739.84c-50.074 0-65.28-26.368-65.28-60.723v-141.67c-0-50.381 25.6-60.774 65.28-60.774h739.84c40.499 0 65.28 20.019 65.28 60.723v141.67c0 43.213-18.381 60.774-65.28 60.774zM903.68-10.701h-783.36v182.17h783.36l-0-182.17zM881.92 519.168h-739.84c-50.074 0-65.28-26.368-65.28-60.774v-141.67c0-50.33 25.6-60.723 65.28-60.723h739.84c40.499 0 65.28 20.019 65.28 60.723v141.67c0 43.213-18.381 60.774-65.28 60.774zM903.68 296.499h-783.36v182.17h783.36l-0-182.17zM881.92 826.368h-739.84c-50.074 0-65.28-26.368-65.28-60.774v-141.67c0-50.33 25.6-60.723 65.28-60.723h739.84c40.499 0 65.28 20.019 65.28 60.723v141.67c0 43.213-18.381 60.774-65.28 60.774zM903.68 603.699h-783.36v182.17h783.36l-0-182.17zM740.403 677.53h87.040c5.99 0 10.906 4.557 10.906 10.138v20.224c0 5.581-4.864 10.138-10.906 10.138h-87.040c-5.99 0-10.854-4.506-10.854-10.138v-20.224c0-5.632 4.864-10.138 10.854-10.138zM740.403 373.914h87.040c5.99 0 10.906 4.557 10.906 10.138v20.224c0 5.581-4.864 10.138-10.906 10.138h-87.040c-5.99 0-10.854-4.506-10.854-10.138l0-20.275c0-5.581 4.864-10.086 10.854-10.086zM740.403 70.246h87.040c5.99 0 10.906 4.557 10.906 10.138v20.224c0 5.581-4.864 10.138-10.906 10.138h-87.040c-5.99 0-10.854-4.506-10.854-10.138v-20.224c0-5.581 4.864-10.138 10.854-10.138zM184.781 719.309h43.52v-40.499h-43.52v40.499zM271.821 719.309h43.52v-40.499h-43.52v40.499zM358.861 719.309h43.52v-40.499h-43.52v40.499zM445.901 719.309h43.52v-40.499h-43.52v40.499zM184.781 415.693h43.52v-40.499h-43.52v40.499zM271.821 415.693h43.52v-40.499h-43.52v40.499zM358.861 415.693h43.52v-40.499h-43.52v40.499zM445.901 415.693h43.52v-40.499h-43.52v40.499zM184.781 112.077h43.52v-40.499h-43.52v40.499zM271.821 112.077h43.52v-40.499h-43.52v40.499zM358.861 112.077h43.52v-40.499h-43.52v40.499zM445.901 112.077h43.52v-40.499h-43.52v40.499z"  horiz-adv-x="1024" />

    
    <glyph glyph-name="jiahao" unicode="&#58956;" d="M744.763733 325.565867 538.709333 325.565867 538.709333 531.6288c0 13.952-11.306667 25.250133-25.258667 25.250133s-25.258667-11.298133-25.258667-25.250133l0-206.0544L282.129067 325.5744c-13.952 0-25.250133-11.306667-25.250133-25.258667s11.298133-25.258667 25.250133-25.258667L488.192 275.057067l0-206.0544c0-13.952 11.306667-25.250133 25.258667-25.250133s25.258667 11.298133 25.258667 25.250133L538.709333 275.048533l206.0544 0c13.952 0 25.250133 11.306667 25.250133 25.258667S758.715733 325.565867 744.763733 325.565867z"  horiz-adv-x="1024" />

    
    <glyph glyph-name="wangluo" unicode="&#58903;" d="M511.999488 811.976464C229.228957 811.976464 0.004093 582.760992 0.004093 300.001023c0-282.748712 229.224864-511.976464 511.995395-511.976464 282.762344 0 511.996418 229.228775 511.996418 511.976464C1023.995907 582.760992 794.761833 811.976464 511.999488 811.976464zM752.655151 324.379247l-216.274393 0 0 216.265532c66.505348-1.613754 130.965023-9.810437 192.449825-23.798009C742.822822 455.3563 751.041331 390.89722 752.655151 324.379247zM536.380757 275.61973l216.274393 0c-1.648614-67.921949-10.163894-133.705188-24.7026-196.365296-61.220778-13.183254-125.381636-20.911262-191.571793-22.438035L536.380757 275.61973 536.380757 275.61973zM975.745042 324.379247 804.286134 324.379247c-1.423477 61.168128-8.203159 120.706129-19.749596 177.9816 61.463312-18.020422 119.455427-41.946344 172.951974-70.919213C967.569514 397.228415 973.830358 361.379952 975.745042 324.379247zM930.231634 501.992457c-50.070377 23.331381-103.259919 42.61968-158.937221 57.31538-14.694256 55.663764-33.967994 108.854197-57.297262 158.913313C808.193277 672.645139 884.648639 596.181653 930.231634 501.992457zM643.430135 745.48305c28.977126-53.491285 52.901981-111.48307 70.929282-172.939771-57.273725 11.543917-116.811095 18.306948-177.976613 19.730367L536.382804 763.215924c0 0.167822-0.010233 0.332575-0.014327 0.499373C573.364559 761.803761 609.218584 755.558523 643.430135 745.48305zM487.632546 763.71632c-0.00307-0.166799-0.013304-0.332575-0.013304-0.499373l0-170.9433c-62.841762-1.462305-123.966345-8.563026-182.680944-20.693298 16.863754 60.712757 39.207537 118.049626 66.242348 171.025165C408.201288 754.372511 447.232809 761.627752 487.632546 763.71632zM304.34885 715.436734c-21.69498-49.383734-39.640413-101.789291-53.368628-156.587338-55.044872-14.636349-107.65213-33.766035-157.202646-56.853869C138.442628 594.291606 212.749982 669.568057 304.34885 715.436734zM66.517628 431.444704c53.196706 28.812209 110.841906 52.632731 171.926579 70.618361-10.942662-57.183374-17.364171-116.620068-18.716014-177.684842L48.269284 324.378224C50.182945 361.379952 56.436626 397.231485 66.517628 431.444704zM48.269284 275.61973l171.459932 0c1.38766-62.736856 8.124361-123.754558 19.6227-182.375677-60.326372 16.823154-117.304349 39.061644-169.968914 65.937758C57.615523 196.197866 50.358961 235.224718 48.269284 275.61973zM96.563129 92.35173c48.87306-21.467941 100.683129-39.295981 154.862249-52.970422 13.670908-54.157457 31.462838-105.966427 52.924495-154.820088C214.627826-70.506429 141.498346 2.635405 96.563129 92.35173zM487.619243-163.714274c-40.394621 2.089591-79.421025 9.344832-116.438597 21.110807-26.879262 52.66343-49.11764 109.639073-65.945577 169.956833 58.623521-11.497868 119.646793-18.223037 182.385197-19.611663L487.620266-163.714274zM487.619243 56.817422c-67.615681 1.559519-133.115078 9.589402-195.523963 23.296589-13.708772 62.400189-21.738984 127.892809-23.298567 195.506742l218.821507 0L487.618219 56.817422zM268.797736 324.379247c1.525812 66.192561 9.271534 130.346697 22.457375 191.56599 62.660629 14.535041 128.444517 23.049972 196.364132 24.699542l0-216.265532L268.797736 324.379247zM536.380757-163.714274l0 171.454954c61.057043 1.351787 120.501289 7.737218 177.678819 18.677385-17.988413-61.072961-41.812981-118.708636-70.631488-171.899068C609.222677-155.5575 573.374792-161.800691 536.380757-163.714274zM713.997152-118.220127c23.08571 49.53723 42.196737 102.139262 56.833685 157.169599 54.818712 13.730723 107.223347 31.707143 156.624454 53.408397C881.576548 0.760708 806.30213-73.558951 713.997152-118.220127zM954.628254 159.186927c-52.978733-27.034726-110.317951-49.376571-171.037289-66.236564 12.130769 58.710147 19.231781 119.829156 20.695169 182.668343l171.456862 0C973.654342 235.226764 966.394711 196.201959 954.628254 159.186927z"  horiz-adv-x="1024" />

    
    <glyph glyph-name="fuzaijunheng" unicode="&#58937;" d="M866.176 149.856c-20.864 0-40.704-4.352-59.008-11.776L613.184 488.288c34.304 29.376 56.64 72.704 56.64 121.856 0 88.384-70.656 160-157.824 160s-157.824-71.616-157.824-160c0-40.704 15.424-77.376 40.128-105.664l-198.528-359.808c-12.224 3.072-24.832 5.184-37.952 5.184-87.168 0-157.824-71.616-157.824-160s70.656-160 157.824-160c78.016 0 142.336 57.472 155.136 132.864l398.144 0c12.8-75.392 77.12-132.864 155.136-132.864 87.168 0 157.824 71.616 157.824 160S953.344 149.856 866.176 149.856zM445.376 465.568C465.664 455.904 488.128 450.144 512 450.144c15.936 0 30.976 3.136 45.504 7.552l196.736-355.136c-20.096-20.544-34.432-46.72-41.216-75.84L310.976 26.72c-8.512 36.544-29.504 67.968-58.048 90.048L445.376 465.568z"  horiz-adv-x="1025" />

    
    <glyph glyph-name="xiangxixinxi" unicode="&#58912;" d="M284.71039 640.025207l0-113.737414 682.425508 0L967.135898 640.025207 284.71039 640.025207zM57.235562 526.28677l113.737414 0L170.972976 640.025207 57.235562 640.025207 57.235562 526.28677zM284.71039 241.942723l682.425508 0L967.135898 355.68116 284.71039 355.68116 284.71039 241.942723zM57.235562 241.942723l113.737414 0L170.972976 355.68116 57.235562 355.68116 57.235562 241.942723zM284.71039-42.400301l682.425508 0L967.135898 71.337113 284.71039 71.337113 284.71039-42.400301zM57.235562-42.400301l113.737414 0L170.972976 71.337113 57.235562 71.337113 57.235562-42.400301z"  horiz-adv-x="1024" />

    
    <glyph glyph-name="chaxun" unicode="&#58939;" d="M188.174242 735.924211C57.206398 599.59629 61.599452 382.966461 197.925327 252.01806c136.325875-130.950448 352.958774-126.554324 483.906152 9.773598 130.928958 136.306432 126.556371 352.955704-9.788947 483.882616C535.756565 876.62472 319.104223 872.22962 188.174242 735.924211zM592.961428 347.107765c-83.795475-87.24504-222.428905-90.014106-309.694411-6.239098-87.266529 83.812871-90.057085 222.468814-6.260587 309.715901 83.812871 87.266529 222.467791 90.035596 309.736367 6.240121C673.98579 573.031261 676.757926 434.375318 592.961428 347.107765zM606.867136 227.296005 784.449647 56.735421c34.8139-33.449833 90.13281-32.346709 123.583666 2.492774 33.43039 34.808784 32.328289 90.131787-2.487657 123.583666L727.962122 353.350956 606.867136 227.296005z"  horiz-adv-x="1024" />

    
    <glyph glyph-name="aixin" unicode="&#58899;" d="M523.434935 683.573913c15.380292 12.310374 29.271674 25.210172 44.902676 35.69292 49.799196 33.582863 104.904235 47.195905 164.410514 38.109969 83.201957-12.775978 143.483902-58.640562 182.647877-132.163065 21.335934-40.003086 29.487591-83.198887 28.653597-128.659265-0.836041-42.823318-14.110369-81.429591-33.92567-118.456902-18.978237-35.443233-42.543955-67.754127-68.191078-98.701976-40.343847-48.685839-84.997859-93.092211-131.789559-135.575792-50.607608-45.860491-103.758132-88.594781-158.397566-129.618103-11.938913-8.964162-24.871457-12.964266-39.350217-8.56098-5.458315 1.705851-10.885931 4.558829-15.504112 7.938809-79.136362 58.608839-154.522306 121.405047-223.797066 191.455473-40.158628 40.590464-77.927837 83.198887-109.807918 130.829697-19.505239 29.210275-36.155455 59.880809-47.258327 93.370551-7.502881 22.791076-10.109242 46.235021-11.040451 70.112847-4.246721 106.114806 60.595077 207.145827 159.76368 244.760516 74.763774 28.249391 146.397255 19.412119 213.904765-23.258727 15.503089-9.705036 29.39754-21.519106 42.10905-34.729989C521.913279 684.908304 523.12385 683.883975 523.434935 683.573913"  horiz-adv-x="1024" />

    
    <glyph glyph-name="tongjitubiao" unicode="&#58909;" d="M864.680946 600.101803 920.983253 831.696462 689.128675 775.654075 747.880777 716.901972 524.246417 493.25124 429.22425 588.266243 103.0147 261.999388 165.189761 199.807954 165.189761 199.84991 429.22425 463.917144 524.246417 368.901117 810.055838 654.735098ZM175.759491 149.267884l117.236098 0 0-212.947973-117.236098 0 0 212.947973ZM369.933889 255.751081l117.235075 0 0-319.447543-117.235075 0 0 319.447543ZM571.423903 363.725234l117.234051 0 0-427.422719-117.234051 0 0 427.422719ZM767.409552 468.72259l117.27089 0 0-532.419052-117.27089 0 0 532.419052Z"  horiz-adv-x="1024" />

    
    <glyph glyph-name="xuncharenwu" unicode="&#58940;" d="M769.664-128c-125.376 0-227.008 102.144-227.008 228.032 0 126.016 101.632 228.096 227.008 228.096s227.008-102.144 227.008-228.096C996.672-25.856 895.04-128 769.664-128L769.664-128 769.664-128zM908.608 166.72c-16.064 13.44-42.048 13.44-58.112 0l-116.544-97.536-21.632 21.76c-13.056 13.12-34.112 13.12-47.168 0s-13.056-34.304 0-47.36l29.696-29.888c7.616-8.256 7.616-8.256 13.44-13.184 8.256-6.784 15.936-14.208 26.688-14.08 3.968-0.064 7.744 0.64 11.52 1.92 6.144 1.536 12.032 4.032 16.896 8.064l145.344 121.6C924.672 131.584 924.672 153.344 908.608 166.72L908.608 166.72 908.608 166.72zM466.56 100.032c0 168.256 135.68 304.576 303.104 304.576 40 0 78.144-8 113.152-22.144L882.816 896 27.328 896l0-966.912 491.648 0C485.888-22.208 466.56 36.672 466.56 100.032L466.56 100.032zM163.456 100.032l0 38.144 227.328 0 0-38.144L163.456 100.032 163.456 100.032zM163.456 290.432 163.456 328.512l303.104 0 0-38.08L163.456 290.432 163.456 290.432zM731.84 709.248l0-76.16-568.32 0 0 76.16L731.84 709.248 731.84 709.248zM731.84 518.848l0-38.144-568.32 0L163.52 518.848 731.84 518.848z"  horiz-adv-x="1024" />

    
    <glyph glyph-name="guanli" unicode="&#58904;" d="M382.89 611.451c0 82.045-66.641 148.351-148.35 148.351-82.045 0-148.351-66.64-148.351-148.351 0-39.851 15.74-76.017 41.524-102.808-7.032-29.133-10.715-59.608-10.715-91.086 0-141.318 74.342-264.888 185.856-334.208l29.804 121.896c-60.611 50.901-99.123 127.253-99.123 212.312 0 15.404 1.339 30.809 3.683 45.543C317.589 464.439 382.89 530.076 382.89 611.451L382.89 611.451 382.89 611.451zM510.144 694.5c51.235 0 99.458-14.065 140.647-38.175-6.361-16.744-10.045-34.828-10.045-53.581 0-82.045 66.639-148.351 148.35-148.351s148.35 66.64 148.35 148.351c0 81.709-66.303 148.015-148.35 148.015-19.088 0-37.506-3.683-54.584-10.381-63.627 44.204-140.984 70.324-224.704 70.324-56.595 0-110.509-12.055-159.066-33.487l67.98-98.453C447.521 689.143 478.331 694.5 510.144 694.5L510.144 694.5 510.144 694.5zM786.752 404.832c-4.354-101.132-62.957-187.867-147.348-232.405-24.445 48.223-74.676 81.041-132.275 81.041-82.044 0-148.35-66.642-148.35-148.352 0-81.709 66.641-148.351 148.35-148.351 61.617 0 114.193 37.507 136.965 90.751 151.365 54.922 259.529 199.922 259.529 370.041 0 8.707-0.334 17.414-1.004 26.121L786.752 404.832 786.752 404.832 786.752 404.832z"  horiz-adv-x="1024" />

    
    <glyph glyph-name="bingzhuangtu" unicode="&#58907;" d="M491.59067-23.090649c-52.194756 0-102.839203 10.225899-150.524249 30.394241-46.048779 19.475564-87.398536 47.352471-122.903168 82.857103-35.503609 35.502585-63.381539 76.851319-82.857103 122.894981-20.167319 47.680952-30.393217 98.317213-30.393217 150.503782 0 45.329395 7.776104 89.729627 23.112394 131.967614 14.81952 40.813544 36.31816 78.633918 63.899332 112.412233 55.317886 67.746964 132.603087 115.176183 217.619366 133.550669 11.04659 2.391467 21.939685-4.632507 24.327058-15.680121 2.388397-11.047614-4.632507-21.939685-15.680121-24.327058-75.988672-16.424064-145.085376-58.839083-194.561208-119.43109-24.663726-30.204929-43.884486-64.015989-57.130162-100.493785-13.706163-37.746696-20.655436-77.446883-20.655436-117.997438 0-92.342128 35.96205-179.157379 101.261265-244.455571 65.302285-65.299215 152.128793-101.262288 244.485247-101.262288 41.144072 0 81.392752 7.15291 119.626541 21.259186 36.947494 13.632485 71.098291 33.390481 101.502765 58.724473 61.137429 50.942229 103.117542 121.747855 118.206192 199.37177 2.157129 11.095709 12.898775 18.336624 23.995507 16.184611 11.095709-2.156106 18.34174-12.899798 16.184611-23.995507-16.882506-86.850044-63.825654-166.048827-132.184555-223.008097-33.999348-28.329209-72.199369-50.426483-113.535823-65.678862C582.600453-15.086347 537.585213-23.090649 491.59067-23.090649zM898.61992 384.517793c-0.01228 0-0.023536 0-0.035816 0l-366.17375 0.638543c-11.289114 0.020466-20.430308 9.17701-20.430308 20.466124L511.980046 770.624525c0 11.30344 9.162684 20.466124 20.466124 20.466124 52.15587 0 102.746082-10.209526 150.387126-30.344099 46.004777-19.442818 87.326904-47.275723 122.819257-82.724073 35.490306-35.44528 63.374376-76.731592 82.878592-122.710786 20.195971-47.608298 30.476105-98.175997 30.553876-150.298098 0.008186-5.438872-2.149966-10.658757-5.995551-14.504342C909.252071 386.672876 904.046512 384.517793 898.61992 384.517793zM552.912293 426.052768l324.615239-0.565888c-5.046946 84.502579-40.399105 163.249061-100.799754 223.572962-60.431348 60.355623-139.259694 95.607498-223.815485 100.507088L552.912293 426.052768z"  horiz-adv-x="1024" />

    
    <glyph glyph-name="iconguanliyuan" unicode="&#58947;" d="M940.8 25.6c0 6.4 0 12.8 0 25.6l-6.4-6.4L940.8 25.6zM569.6-44.8l12.8 89.6-64 64c-25.6 19.2-32 51.2-19.2 76.8s32 44.8 64 51.2l89.6 12.8 6.4 6.4C608 294.4 620.8 345.6 640 358.4c12.8 6.4 25.6 19.2 32 25.6 12.8 19.2 25.6 38.4 32 64 25.6 0 44.8 25.6 51.2 57.6 6.4 32-6.4 64-32 70.4 0 140.8-70.4 256-211.2 256-147.2 0-211.2-115.2-211.2-256C275.2 576 262.4 544 268.8 512 275.2 473.6 294.4 454.4 320 454.4c6.4-25.6 19.2-44.8 38.4-64C364.8 384 371.2 371.2 384 364.8l0 0c25.6-19.2 44.8-102.4-89.6-147.2-128-44.8-243.2-57.6-204.8-217.6 0 0 57.6-70.4 422.4-70.4 19.2 0 38.4 0 57.6 0C569.6-57.6 569.6-51.2 569.6-44.8zM947.2 172.8l-96 12.8c-12.8 0-32 12.8-38.4 25.6l-44.8 83.2c0 6.4-6.4 12.8-12.8 12.8-6.4 0-6.4-6.4-12.8-12.8l-44.8-83.2c-6.4-12.8-25.6-25.6-38.4-25.6L576 172.8c-12.8 0-19.2-12.8-6.4-19.2l70.4-64c12.8-12.8 19.2-32 12.8-44.8l-12.8-96c0-12.8 0-19.2 6.4-19.2 0 0 6.4 0 6.4 0l83.2 44.8c6.4 6.4 12.8 6.4 25.6 6.4 6.4 0 19.2 0 25.6-6.4l83.2-44.8c6.4 0 6.4 0 6.4 0 6.4 0 12.8 6.4 6.4 19.2l-12.8 96c0 12.8 6.4 32 12.8 44.8l70.4 64C966.4 160 960 172.8 947.2 172.8L947.2 172.8zM947.2 172.8"  horiz-adv-x="1024" />

    
    <glyph glyph-name="guanliyuan" unicode="&#58948;" d="M430.2869 895.256907c95.127155 0 192.251059-80.791524 223.994243-186.260813 28.056879-93.232804-6.143842-186.670403-93.3864-255.481434C483.482333 392.43463 399.516491 387.314761 312.837118 438.411048c-161.941438 95.229553-157.231159 321.220545 10.290936 423.105926C354.768841 880.562885 388.815966 890.956218 430.2869 895.256907 431.46447 892.543377 429.262926 897.86804 430.2869 895.256907L430.2869 895.256907 430.2869 895.256907zM72.510495-2.92161c-1.023974 0.102397-1.996749 0.307192-2.867126 0.409589-74.238092 15.922791-77.668404 21.349851-54.936188 91.543247 15.308407 47.409982 29.900032 94.973559 46.795597 141.820355 26.725713 74.545284 83.863445 113.097893 159.944689 116.988993 88.676121 4.607882 177.81303 1.843153 266.642747 1.023974 30.616813-0.307192 35.839079-10.90532 22.885812-38.911-3.225517-7.01422-7.01422-13.977241-11.110114-20.581871-51.966664-83.556253-68.811032-172.539566-44.798849-269.202681 9.881346-39.67898 2.150345-47.102789-38.450212-47.973167-20.479474-0.460788-41.112543-0.153596-61.540818-0.153596C355.076033-27.957766 159.599457-12.956552 72.510495-2.92161zM497.664368 184.311979c15.154811 3.839901 30.002429 8.294187 45.157239 11.417307 23.756189 5.06867 26.879309 16.74197 12.492479 34.968701-9.215763 11.468505-18.738718 22.476222-30.412018 35.992675 12.185287 16.485976 24.728964 33.483939 37.375039 50.481903 12.082889 16.485976 24.012183 32.971953 37.579834 51.505876 15.922791-11.775697 30.36082-22.988209 45.208438-33.739933 23.039408-16.537175 38.655007-12.543678 50.174711 13.977241 6.143842 14.233234 9.72775 29.490442 15.359605 46.795597 29.439243 0 59.646467 1.279967 89.648896-1.023974 6.758226-0.563186 15.359605-12.697274 18.329129-21.145057 22.732216-62.513593 25.29215-63.383971 78.538782-21.913037 6.860624 5.324663 13.977241 10.188538 22.834613 16.485976 25.189753-33.739933 49.40673-66.404693 77.412411-103.88213-10.751724-8.601379-21.605845-15.410804-30.463217-24.370574-25.036157-24.831362-21.913037-35.992675 11.570903-44.74765 14.028439-3.737504 28.210475-7.167816 43.109292-10.854121l0-101.015004c-16.588374-4.710279-32.613562-8.294187-47.973167-13.874843-26.879309-9.72775-30.002429-25.855336-9.266962-44.74765 9.266962-8.447783 19.250705-16.178784 28.620064-23.909786-33.944728-32.613562-66.865482-64.407945-102.602163-98.711063-7.01422 6.297438-18.124334 16.588374-29.746436 26.46972-21.298653 18.124334-39.883775 11.161313-44.901246-16.74197-1.126371-6.707028-1.996749-13.61885-3.020722-20.274679-0.870378-5.683054-1.587159-11.622101-2.764729-19.4555l-100.707812 0c-3.174318 14.38683-5.734253 29.746436-9.72775 44.491657-5.683054 21.452249-18.533924 29.336846-39.320589 17.407553-18.636321-10.700525-36.96545-22.066633-58.264103-34.763907-25.599342 33.07435-51.505876 66.558289-78.385186 101.322196 10.751724 9.318161 20.581871 17.202758 29.746436 25.752938 21.605845 20.325878 18.585122 33.739933-9.983743 43.928471-14.591625 5.171067-29.746436 8.754975-45.771624 13.260459L497.510772 184.311979 497.664368 184.311979 497.664368 184.311979zM890.051084 135.519632c-0.460788 73.418913-59.54407 132.143804-132.348599 131.427022-73.111721-0.563186-131.068632-59.800063-130.659042-133.321374 0.614384-73.265317 59.390474-131.273426 132.809387-131.017433C833.527737 3.068636 890.460674 61.179143 890.051084 135.519632L890.051084 135.519632 890.051084 135.519632zM890.051084 135.519632"  horiz-adv-x="1024" />

    
    <glyph glyph-name="filter" unicode="&#58941;" d="M512.048095 744.15057c108.968807-0.001023 217.937614 0.013303 326.906421-0.01228 22.988574-0.005117 39.746236-23.006993 31.397081-43.63173-2.0241-5.000897-5.928013-9.53926-9.819646-13.441127-81.898265-82.09474-163.899884-164.085102-245.984391-245.9936-3.270487-3.263323-4.623297-6.412037-4.618181-11.084453 0.141216-123.806747 0.12996-247.613494 0.101307-371.420241-0.00614-24.726148-21.300119-40.71633-43.75862-32.619932-4.313236 1.554402-8.472975 4.523013-11.758812 7.789407-43.536562 43.282782-86.87665 86.762039-130.34158 130.117476-7.310499 7.29208-10.616802 15.866363-10.604522 26.155706 0.096191 80.830957 0.094144 161.661913-0.075725 242.49287-0.005117 2.464121-1.603521 5.491061-3.412726 7.30436-82.625836 82.813101-165.241438 165.638481-248.189615 248.12924-14.591323 14.510482-12.149714 31.937386-3.108804 44.287669 6.471388 8.840342 15.700587 11.95938 26.362414 11.951193 59.514465-0.046049 119.029954-0.022513 178.544419-0.022513C413.140435 744.151593 462.594777 744.151593 512.048095 744.15057z"  horiz-adv-x="1024" />

    
    <glyph glyph-name="duixiangcunchubos" unicode="&#58905;" d="M384 896 64 896C28.64 896 0 867.328 0 832l0-448c0-35.36 28.64-64 64-64l320 0c35.328 0 64 28.64 64 64L448 832C448 867.328 419.328 896 384 896zM384 192 64 192c-35.36 0-64-28.672-64-64l0-192c0-35.328 28.64-64 64-64l320 0c35.328 0 64 28.672 64 64l0 192C448 163.328 419.328 192 384 192zM960 896 640 896c-35.36 0-64-28.672-64-64l0-192c0-35.36 28.64-64 64-64l320 0c35.36 0 64 28.64 64 64L1024 832C1024 867.328 995.36 896 960 896zM960 448 640 448c-35.36 0-64-28.672-64-64l0-448c0-35.328 28.64-64 64-64l320 0c35.36 0 64 28.672 64 64L1024 384C1024 419.328 995.36 448 960 448z"  horiz-adv-x="1024" />

    
    <glyph glyph-name="iconlove1" unicode="&#58895;" d="M511.384994 23.85015c0 0-3.749386-1.902322-99.441628 53.422617-44.99673 26.015461-90.315801 53.621138-161.633961 126.996139-267.245089 274.955686-93.653819 543.988488 49.201487 543.988488 93.3939 0 171.710437-60.704449 212.457385-106.587361 37.63201 42.115106 115.94957 106.587361 212.461478 106.587361 142.85633 0 319.388576-271.923636 49.200464-543.988488-72.701667-73.206156-116.862358-100.791366-176.713371-135.183595C514.887764 21.947827 511.384994 23.85015 511.384994 23.85015z"  horiz-adv-x="1024" />

    
    <glyph glyph-name="iconfontdian" unicode="&#58985;" d="M414.985216 480.877568l192.331776 0 0-191.906816-192.331776 0 0 191.906816Z"  horiz-adv-x="1024" />

    
    <glyph glyph-name="lovecheck" unicode="&#58898;" d="M825.682235 564.025143c-22.709211 86.771249-89.00308 118.887714-154.840554 118.489648-53.969169-0.331551-109.682052-34.455743-146.222269-105.922425-9.761318-19.092847-16.116049-19.012006-26.097378 0.179079-36.257785 69.687152-93.319385 106.199741-148.46331 105.805768-65.227584-0.465604-130.504286-32.546254-152.608723-118.762871-5.301749-20.696368-5.248537-44.499493-5.4225-71.735811C191.126992 349.329363 512.119727 94.12396 512.119727 94.12396s320.249815 252.758678 319.344189 396.466684C831.28893 518.525879 831.212182 542.897963 825.682235 564.025143z"  horiz-adv-x="1024" />

    
    <glyph glyph-name="zhuji" unicode="&#58910;" d="M890.4 512.889h-758.933c-52.16 0-68-26.748-68-61.555v-132.429c0-51.139 26.667-61.66 68-61.66h758.933c42.187 0 68 20.308 68 61.555v132.429c0 43.863-19.147 61.66-68 61.66zM899.018 316.446h-774.007v136.228h774.009l-0.001-136.228zM728.042 361.067h90.453c6.225 0 11.333 4.789 11.333 10.667v21.333c0 5.878-5.055 10.667-11.333 10.667h-90.453c-6.225 0-11.28-4.735-11.28-10.667v-21.333c0-5.877 5.055-10.667 11.28-10.667zM189.905 403.237h42.667v-42.667h-42.667v42.667zM276.25 404.229h42.667v-42.667h-42.667v42.667zM364.754 403.237h42.667v-42.667h-42.667v42.667zM450.018 402.171h42.667v-42.667h-42.667v42.667zM890.4 191.822h-758.933c-52.16 0-68-26.748-68-61.555v-132.429c0-51.139 26.667-61.66 68-61.66h758.933c42.187 0 68 20.308 68 61.555v132.429c0 43.863-19.147 61.66-68 61.66zM899.018-4.621h-774.007v136.228h774.009l-0.001-136.228zM728.042 40h90.453c6.225 0 11.333 4.789 11.333 10.667v21.333c0 5.878-5.055 10.667-11.333 10.667h-90.453c-6.225 0-11.28-4.735-11.28-10.667v-21.333c0-5.877 5.055-10.667 11.28-10.667zM189.905 82.171h42.667v-42.667h-42.667v42.667zM276.25 83.163h42.667v-42.667h-42.667v42.667zM364.754 82.171h42.667v-42.667h-42.667v42.667zM450.018 81.104h42.667v-42.667h-42.667v42.667zM890.4 832.889h-758.933c-52.16 0-68-26.748-68-61.555v-132.429c0-51.139 26.667-61.66 68-61.66h758.933c42.187 0 68 20.308 68 61.555v132.429c0 43.863-19.147 61.66-68 61.66zM899.018 636.446h-774.007v136.228h774.009l-0.001-136.228zM728.042 682.133h90.453c6.225 0 11.333 4.789 11.333 10.667v21.333c0 5.878-5.055 10.667-11.333 10.667h-90.453c-6.225 0-11.28-4.735-11.28-10.667v-21.333c0-5.877 5.055-10.667 11.28-10.667zM189.905 724.304h42.667v-42.667h-42.667v42.667zM276.25 725.296h42.667v-42.667h-42.667v42.667zM364.754 724.304h42.667v-42.667h-42.667v42.667zM450.018 723.237h42.667v-42.667h-42.667v42.667z"  horiz-adv-x="1024" />

    
    <glyph glyph-name="caijirenwu" unicode="&#58931;" d="M390.4 729.6c0-70.692 57.308-128 128-128 70.692 0 128 57.308 128 128 0 70.692-57.308 128-128 128-70.692 0-128-57.308-128-128zM390.4 38.4c0-70.692 57.308-128 128-128 70.692 0 128 57.308 128 128 0 70.692-57.308 128-128 128-70.692 0-128-57.308-128-128zM390.4 384c0-70.692 57.308-128 128-128 70.692 0 128 57.308 128 128 0 70.692-57.308 128-128 128-70.692 0-128-57.308-128-128zM684.8 556.8c0-70.692 57.308-128 128-128s128 57.308 128 128c0 70.692-57.308 128-128 128-70.692 0-128-57.308-128-128zM96 211.2c0-70.692 57.308-128 128-128s128 57.308 128 128c0 70.692-57.308 128-128 128-70.692 0-128-57.308-128-128zM684.8 211.2c0-70.692 57.308-128 128-128s128 57.308 128 128c0 70.692-57.308 128-128 128-70.692 0-128-57.308-128-128zM96 556.8c0-70.692 57.308-128 128-128s128 57.308 128 128c0 70.692-57.308 128-128 128-70.692 0-128-57.308-128-128z"  horiz-adv-x="1024" />

    
    <glyph glyph-name="10xinbanjiankong" unicode="&#58949;" d="M787.051403-22.432663 236.953713-22.432663c-21.642926 0-39.293935-39.293935-39.293935-39.293935l0-44.410466 628.685559 0 0 44.410466C826.345338-40.083671 808.695353-22.432663 787.051403-22.432663L787.051403-22.432663zM787.051403-22.432663M904.934231 874.138086 119.070886 874.138086c-65.078181 0-117.875664-52.819996-117.875664-117.876688l0-542.940686c0-65.073064 52.797483-117.875664 117.875664-117.875664l275.052426 0 0-39.294958c0-21.659299 17.652032-39.287795 39.293935-39.287795l157.170622 0c21.641903 0 39.293935 20.258393 39.293935 39.287795l0 39.294958 275.04731 0c65.078181 0 117.875664 52.8026 117.875664 117.875664L1022.804778 756.260375C1022.809895 821.317067 970.007295 874.138086 904.934231 874.138086L904.934231 874.138086zM119.070886 262.846686c-21.641903 0-39.287795 17.634636-39.287795 39.293935L79.783091 746.027313c0 21.642926 17.652032 39.289841 39.287795 39.289841L904.934231 785.317155c21.635763 0 39.287795-17.652032 39.287795-39.289841l0-443.886693c0-21.659299-17.652032-39.293935-39.287795-39.293935L119.070886 262.846686 119.070886 262.846686zM904.894322 133.280772c-22.452361 0-40.678468 18.226107-40.678468 40.751123 0 22.462594 18.232247 40.750099 40.678468 40.750099 22.5199 0 40.751123-18.287505 40.751123-40.750099C945.640328 151.506878 927.414221 133.280772 904.894322 133.280772L904.894322 133.280772zM904.894322 133.280772M798.562575 703.352375l-129.386836-129.392976-90.099041 90.099041c-8.635681 8.670473-20.838607 12.739139-33.002648 11.165294-12.124132-1.63115-22.830985-8.826016-28.894074-19.455097l-116.804263-204.384947-48.348148 120.906697c-4.907777 12.258185-15.652492 21.24179-28.587082 23.887037-13.157671 2.667759-26.359344-1.362021-35.682687-10.706853L169.875992 467.594907c-15.3455-15.352663-15.3455-40.215934 0-55.561433 15.350616-15.352663 40.215934-15.352663 55.56655 0l75.746148 75.747171 56.4425-141.154857c5.604648-13.983479 18.723434-23.556509 33.768081-24.596188 0.919952-0.055259 1.841951-0.094144 2.724041-0.094144 14.044878 0 27.091008 7.502881 34.113959 19.799952l131.653459 230.382041 81.501222-81.501222c15.352663-15.3455 40.215934-15.3455 55.561433 0l157.176762 157.175739c15.3455 15.346523 15.3455 40.209794 0 55.561433C838.778508 718.698898 813.914214 718.698898 798.562575 703.352375L798.562575 703.352375zM798.562575 703.352375"  horiz-adv-x="1024" />

    
    <glyph glyph-name="1icon" unicode="&#58950;" d="M27.726993 822.560384l0-698.043207 956.357414 0L984.084407 822.560384 27.726993 822.560384zM138.150942 716.079234l725.648938 0 0-414.093133L138.150942 301.986101 138.150942 716.079234zM840.13797 165.927309c-33.760918 0-61.128219 27.374464-61.128219 61.127196 0 33.768081 27.367301 61.128219 61.128219 61.128219 33.759895 0 61.127196-27.360138 61.127196-61.128219C901.265166 193.301773 873.897865 165.927309 840.13797 165.927309zM668.58478 558.329421 668.515195 350.898091 750.348991 350.898091 750.417553 605.654262 719.853443 605.654262ZM534.497898 471.413885 534.467199 350.651474 621.767498 350.651474 621.79922 498.187669 576.92315 498.187669ZM404.354839 430.990221 404.477636 350.544027 491.778958 350.544027 491.655138 449.877383 446.780091 449.877383ZM253.506203 349.310943 288.014134 349.310943 288.191166 382.202051 315.141982 396.990872 314.634422 350.29741 350.967932 350.651474 352.27674 419.004235 445.762925 465.651648 488.335533 486.371552 497.533009 513.978307 555.379485 520.556119 645.423267 611.26198 674.500513 590.373231 715.909621 681.079092 603.513762 653.472338 625.057427 628.347101 546.821575 541.075455 486.040257 533.374052 471.397768 505.088846 420.306136 479.809089 325.972655 432.130184 288.999578 408.960485 248.429581 387.778046 248.429581 349.310943ZM385.621173 86.066447 385.621173 2.261763 165.757696 2.261763 165.757696-52.9497 822.390771-52.9497 822.390771 5.220141 618.302583 5.220141 618.302583 84.095559Z"  horiz-adv-x="1024" />

    
    <glyph glyph-name="dingdanchaxun" unicode="&#58951;" d="M698.83383-54.856371C567.718195-54.856371 461.148838 51.741551 461.148838 182.890948 461.148838 313.937766 567.718195 420.573342 698.83383 420.573342 829.979337 420.573342 936.646076 313.936465 936.646076 182.890948 936.647373 51.740254 829.979337-54.856371 698.83383-54.856371L698.83383-54.856371ZM698.841621 362.186325C600.025434 362.186325 519.535855 281.777254 519.535855 182.879262 519.535855 84.009839 600.025434 3.491695 698.841621 3.491695 797.762987 3.491695 878.23049 83.982571 878.23049 182.879262 878.201924 281.807117 797.762987 362.186325 698.841621 362.186325L698.841621 362.186325ZM957.646234-124.293372C949.538586-128.271885 940.644062-127.377237 936.808384-123.546748L823.489579-10.178603C815.731217-2.608521 828.534135 23.997133 836.2912 31.708749 843.953472 39.373619 856.386325 39.373619 864.142089 31.708749L977.419341-81.565905C985.175104-89.273626 985.175104-101.796075 977.419341-109.463539 973.583659-113.295326 962.051942-122.131418 957.646234-124.293372L957.646234-124.293372ZM426.418654 177.990519C426.418654 322.741393 534.673425 451.776883 667.866611 451.776883 716.355388 451.776883 761.551245 456.187785 799.42633 429.306854L799.42633 654.603141 532.404996 654.603141C459.428365 654.603141 400.238895 718.87872 400.238895 798.271091L400.240193 894.817553 133.216266 894.817553C60.242235 894.817553 1.050166 830.47705 1.050166 751.149603L1.050166 93.901581C1.050166 14.574135 60.242234-49.768964 133.216266-49.768964L548.245035-49.768964C475.544981-4.422485 426.418654 80.623424 426.418654 177.990519L426.418654 177.990519ZM561.194679 676.752448 801.632427 676.752448 430.900975 894.816255 430.900975 807.144838C430.900975 735.145956 489.230857 676.752448 561.194679 676.752448L561.194679 676.752448Z"  horiz-adv-x="1024" />

    
    <glyph glyph-name="jiankong1" unicode="&#58908;" d="M841.4 622.4 180.6 622.4c-13.3 0-24-10.7-24-24l0-432.3c0-13.3 10.7-24 24-24l100.8 0c7.3 0 14.1 3.3 18.7 8.9l134.3 166.5 61.3-50.6c9.8-8.1 24.2-7.1 32.9 2.2l119.2 128.6c11.6-7.1 25.2-11.1 39.8-11.1 42.3 0 76.8 34.4 76.8 76.8s-34.4 76.8-76.8 76.8c-42.3 0-76.8-34.4-76.8-76.8 0-10.2 2-20 5.7-28.9L508.8 318.4l-62.5 51.6c-4.9 4.1-11.3 6-17.7 5.4-6.4-0.6-12.2-3.8-16.3-8.8L270 190.1l-65.4 0L204.6 574.4l612.7 0 0-384.3-331 0c-13.3 0-24-10.7-24-24l0-117.7-141 0c-13.3 0-24-10.7-24-24s10.7-24 24-24l165 0 71.5 0 86.2 0c13.3 0 24 10.7 24 24s-10.7 24-24 24l-86.2 0-47.5 0 0 93.7 331 0c13.3 0 24 10.7 24 24L865.3 598.4C865.4 611.7 854.6 622.4 841.4 622.4zM687.6 492.3c15.9 0 28.8-12.9 28.8-28.8s-12.9-28.8-28.8-28.8c-15.9 0-28.8 12.9-28.8 28.8S671.7 492.3 687.6 492.3z"  horiz-adv-x="1024" />

    
    <glyph glyph-name="wangwang" unicode="&#59295;" d="M558.976 715.968C474.368 781.632 318.72 832 318.72 832s38.912-64.576 46.272-137.216C189.824 637.312 64 480.256 64 295.104 64 61.504 264.64-128 512.064-128S960 61.504 960 295.104C960 513.92 784.32 693.76 558.976 715.968zM585.728 267.584c-30.464 0-50.816-1.408-78.08-1.792 12.224 62.4 1.152 145.92-27.008 170.432 32.128 11.52 41.984 19.328 77.056 29.184C593.472 434.624 593.472 311.104 585.728 267.584zM825.92 296.64c-30.656 0-45.696 1.152-74.048-1.856 10.496 68.672 4.16 144.896-37.184 170.496 31.552 13.568 39.744 20.672 75.072 29.184C830.336 456.256 848.128 335.936 825.92 296.64z"  horiz-adv-x="1024" />

    
    <glyph glyph-name="shouquan" unicode="&#58952;" d="M512 853.333333 128 682.666667l0-256c0-236.8 163.84-458.24 384-512 220.16 53.76 384 275.2 384 512L896 682.666667 512 853.333333zM426.666667 170.666667l-170.666667 170.666667 60.16 60.16L426.666667 291.413333l281.173333 281.173333L768 512 426.666667 170.666667z"  horiz-adv-x="1024" />

    
    <glyph glyph-name="link" unicode="&#58942;" d="M1007.616 125.952l-237.568-237.568c-20.48-20.48-57.344-20.48-77.824 0l-278.528 278.528c-20.48 20.48-20.48 57.344 0 77.824l77.824 77.824-40.96 40.96-77.824-77.824c-20.48-20.48-57.344-20.48-77.824 0l-278.528 278.528c-20.48 20.48-20.48 57.344 0 77.824l237.568 237.568c20.48 20.48 57.344 20.48 77.824 0l278.528-278.528c20.48-20.48 20.48-57.344 0-77.824l-77.824-77.824 40.96-40.96 77.824 77.824c20.48 20.48 57.344 20.48 77.824 0l278.528-278.528c20.48-20.48 20.48-57.344 0-77.824zM450.56 523.264c20.48 20.48 20.48 57.344 0 77.824l-118.784 118.784c-20.48 20.48-57.344 20.48-77.824 0l-77.824-77.824c-20.48-20.48-20.48-57.344 0-77.824l118.784-118.784c20.48-20.48 57.344-20.48 77.824 0l-77.824 77.824c-20.48 20.48-20.48 57.344 0 77.824s57.344 20.48 77.824 0l77.824-77.824zM847.872 203.776l-118.784 118.784c-20.48 20.48-57.344 20.48-77.824 0l77.824-77.824c20.48-20.48 20.48-57.344 0-77.824-20.48-20.48-57.344-20.48-77.824 0l-77.824 77.824c-20.48-20.48-20.48-57.344 0-77.824l118.784-118.784c20.48-20.48 57.344-20.48 77.824 0l77.824 77.824c24.576 20.48 24.576 57.344 0 77.824z"  horiz-adv-x="1024" />

    
    <glyph glyph-name="chaxun1" unicode="&#58953;" d="M974.44352 47.4112l-327.707307-0.740693 0-79.757653 107.79136-27.153067 0-54.290773L269.469013-114.530987l0 54.290773 107.79136 27.153067 0 79.757653L49.554773 47.4112C22.167893 47.4112 0 69.39136 0 96.500053L0 752.616107C0 779.741867 22.167893 801.706667 49.554773 801.706667l181.338453 0c-15.233707-24.676693-26.73664-51.812693-33.83296-80.754347L81.204907 720.95232l0-512.175787 861.56288 0L942.767787 720.954027 746.09152 720.954027c-7.094613 28.941653-18.599253 56.077653-33.83296 80.754347l262.18496 0C1001.797973 801.706667 1024 779.741867 1024 752.616107l0-656.116053C1024 69.39136 1001.797973 47.4112 974.44352 47.4112zM794.10176 374.93248c19.456-19.41504 19.456-50.896213 0-70.311253-19.456-19.418453-51.003733-19.418453-70.463147 0l-146.174293 145.860267c-31.68768-16.561493-67.657387-26.059093-105.888427-26.059093-126.503253 0-229.055147 102.54848-229.055147 229.055147S345.07264 882.530987 471.575893 882.530987s229.055147-102.54848 229.055147-229.055147c0-52.107947-17.599147-99.991893-46.90432-138.478933L794.10176 374.93248zM471.45472 799.24224c-80.50688 0-145.769813-65.26464-145.769813-145.768107 0-80.494933 65.26464-145.759573 145.769813-145.759573 80.508587 0 145.773227 65.26464 145.773227 145.759573C617.227947 733.9776 551.963307 799.24224 471.45472 799.24224z"  horiz-adv-x="1024" />

    
    <glyph glyph-name="cluster" unicode="&#58945;" d="M760.896-19.776v199.104h77.44v132.736h-309.76v-132.672h77.44v-199.104h-199.040v199.104h77.44l-0 132.672h-298.752v-132.672h77.44v-199.104l-199.104 0v199.104h77.44v176.896h342.912v132.8h-121.664v298.688h298.624v-298.688h-132.736v-132.736h353.984v-176.96h77.44v-199.104l-199.104-0.064zM760.896-19.776z"  horiz-adv-x="1024" />

    
    <glyph glyph-name="wodeshebei" unicode="&#58932;" d="M861.035418 786.343531 159.527296 786.343531c-57.508785 0-104.561427-47.052642-104.561427-104.561427l0-48.28368c0-26.955932 10.338463-51.615565 27.245528-70.208015l852.670913-3.638877c18.951631 18.951631 30.714536 45.091988 30.714536 73.845869l0 48.28368C965.596845 739.290889 918.544203 786.343531 861.035418 786.343531zM232.462422 399.555278m-11.317767 0a11.06 11.06 0 1 0 22.635533 0 11.06 11.06 0 1 0-22.635533 0ZM69.905116 234.531803c-9.476839-15.719007-14.939247-34.099632-14.939247-53.6939l0-48.28368c0-57.508785 47.052642-104.561427 104.561427-104.561427l701.508121 0c57.508785 0 104.561427 47.052642 104.561427 104.561427l0 48.28368c0 19.382443-5.344728 37.576827-14.633279 53.18327L69.905116 234.531803zM1000.200968 733.384365c10.441816 0.467651 19.490913 8.527211 19.402909 19.402909-0.237407 29.284977-11.756765 57.747215-32.520671 78.512145-20.765953 20.765953-49.226145 32.283264-78.512145 32.520671-10.151197 0.081864-19.869536-8.983605-19.402909-19.402909 0.473791-10.583033 8.524141-19.314904 19.402909-19.402909 3.01466-0.024559 5.995551-0.205685 8.998955-0.435928 0.202615-0.01535 0.373507-0.027629 0.531096-0.037862 0.059352-0.010233 0.110517-0.020466 0.174985-0.031722 1.443885-0.25685 2.883677-0.506537 4.318352-0.811482 2.836605-0.602727 5.64558-1.344624 8.410554-2.216481 1.143033-0.360204 2.27788-0.747014 3.406586-1.152243 0.285502-0.102331 1.629103-0.639566 2.484587-0.972141 0.811482-0.37453 1.850138-0.848321 2.086521-0.963954 1.276063-0.624217 2.536776-1.277086 3.78214-1.960655 2.27481-1.248434 4.497431-2.588965 6.658653-4.024663 1.176802-0.781806 2.317789-1.607614 3.471055-2.423189 0.042979-0.030699 0.077771-0.054235 0.11768-0.082888 0.115634-0.104377 0.243547-0.217964 0.396019-0.353041 2.116197-1.862417 4.240581-3.694135 6.236028-5.689582 1.998517-1.998517 3.808746-4.133134 5.689582-6.236028 0.085958-0.096191 0.148379-0.162706 0.218988-0.2415 0.714268-1.071402 1.52268-2.091638 2.24411-3.158946 2.532683-3.749394 6.199189-8.659217 7.593955-13.189394 0.144286-0.60989 0.330528-1.327228 0.478907-1.731434 0.497327-1.348718 0.961908-2.710738 1.394766-4.081968 0.871857-2.765997 1.610684-5.573949 2.216481-8.410554 0.305969-1.433652 0.538259-2.87856 0.811482-4.318352 0.016373-0.083911 0.029676-0.154519 0.044002-0.228197 0.007163-0.14224 0.01535-0.296759 0.025583-0.477884 0.177032-3.007497 0.411369-5.980201 0.435928-8.998955C980.879923 742.64017 989.662961 732.911598 1000.200968 733.384365zM865.426425 856.696856m-18.892279 0a18.462 18.462 0 1 0 37.784558 0 18.462 18.462 0 1 0-37.784558 0ZM1000.914212 701.791833m-18.892279 0a18.462 18.462 0 1 0 37.784558 0 18.462 18.462 0 1 0-37.784558 0ZM109.169375-53.640432c-0.441045 0.011256-5.545296 0.272199-7.856945 0.455371-0.60989 0.095167-1.218758 0.193405-1.825578 0.304945-1.440815 0.25992-2.876514 0.556679-4.304026 0.88516-2.825348 0.650823-5.621021 1.440815-8.371668 2.359744-1.136893 0.38067-2.25639 0.808412-3.38612 1.209548-0.246617 0.092098-0.48914 0.192382-0.733711 0.286526-4.660136 2.777253-9.595542 4.858658-14.105253 7.967462-0.555655 0.382717-1.092891 0.789992-1.638313 1.186012-0.207731 0.189312-1.841951 1.460258-2.245134 1.807159-2.13257 1.836835-4.182252 3.770883-6.137791 5.794983-1.851161 1.915629-3.557012 3.936659-5.272074 5.967922-0.083911 0.118704-0.160659 0.224104-0.257873 0.364297-0.804319 1.159406-1.619894 2.308579-2.38942 3.492544-1.415232 2.173502-2.739391 4.40431-3.965312 6.690376-0.670266 1.25048-1.312902 2.517333-1.923816 3.798513-0.458441 0.959861-0.907673 1.693572-1.107217 1.969864-2.26867 4.429893-3.236718 10.582009-4.13825 15.182794-0.194428 0.992607-0.454348 2.033309-0.60989 3.061732-0.005117 0.468674-0.033769 1.187035-0.097214 1.987261-0.240477 2.998287-0.310062 5.997598-0.282433 9.005095 0.091074 10.152221-8.989745 19.869536-19.402909 19.402909-10.590196-0.474814-19.305695-8.524141-19.402909-19.402909-0.26299-29.315676 11.023054-57.864896 31.410384-78.961376 20.430308-21.140483 48.793286-32.885991 78.044494-33.622772 10.154267-0.255827 19.86442 9.107425 19.402909 19.402909C128.092353-62.311929 120.049167-53.913655 109.169375-53.640432zM53.344952-25.487232C54.349839-26.715199 54.286394-26.806273 53.344952-25.487232L53.344952-25.487232zM100.835569-53.144128c-0.405229 0.037862-0.660032 0.070608-0.655939 0.094144C100.422154-53.084777 100.630908-53.114452 100.835569-53.144128zM166.183903-73.043341m-18.892279 0a18.462 18.462 0 1 0 37.784558 0 18.462 18.462 0 1 0-37.784558 0ZM19.104103 78.556403m-18.892279 0a18.462 18.462 0 1 0 37.784558 0 18.462 18.462 0 1 0-37.784558 0ZM157.388587 270.85201l701.508121 0c57.508785 0 104.561427 47.052642 104.561427 104.561427l0 48.28368c0 57.508785-47.052642 104.561427-104.561427 104.561427L157.388587 528.258545c-57.508785 0-104.561427-47.052642-104.561427-104.561427l0-48.28368C52.827159 317.904653 99.879801 270.85201 157.388587 270.85201zM657.505955 340.385667c10.877745 0 18.932188-8.890484 19.402909-19.402909 0.469698-10.478655-9.253758-19.402909-19.402909-19.402909-8.500605 0-17.001209 0-25.501814 0-36.84721 0-73.695442 0-110.542652 0-23.098068 0-46.196135 0-69.294203 0-10.877745 0-18.932188 8.890484-19.402909 19.402909-0.469698 10.478655 9.253758 19.402909 19.402909 19.402909 8.500605 0 17.001209 0 25.501814 0 36.84721 0 73.695442 0 110.542652 0C611.30982 340.385667 634.407887 340.385667 657.505955 340.385667zM421.875376 497.531729c4.596691 0 9.193383 0 13.790074 0 31.827893 0 63.655785 0 95.484701 0 10.877745 0 18.932188-8.890484 19.402909-19.402909 0.469698-10.478655-9.253758-19.402909-19.402909-19.402909-4.596691 0-9.193383 0-13.790074 0-31.827893 0-63.655785 0-95.484701 0-10.877745 0-18.932188 8.890484-19.402909 19.402909C402.00277 488.607476 411.726226 497.531729 421.875376 497.531729zM249.312182 457.985038c35.475979 0 64.234977-28.758997 64.234977-64.234977 0-35.475979-28.758997-64.234977-64.234977-64.234977s-64.234977 28.758997-64.234977 64.234977C185.076182 429.226041 213.83518 457.985038 249.312182 457.985038z"  horiz-adv-x="1036" />

    
    <glyph glyph-name="bangzhu" unicode="&#58913;" d="M512.003 784.648c107.019 0 207.624-41.678 283.285-117.363 75.681-75.675 117.361-176.281 117.361-283.287 0-107.022-41.678-207.626-117.363-283.287-75.673-75.68-176.279-117.359-283.282-117.359-107.026 0-207.631 41.678-283.292 117.361-75.68 75.677-117.359 176.283-117.359 283.285 0 107.018 41.678 207.625 117.361 283.289 75.677 75.682 176.285 117.361 283.289 117.361M512.003 831.72c-119.597 0-232.014-46.583-316.576-131.149-84.562-84.541-131.147-196.975-131.147-316.573 0-119.595 46.585-232.013 131.147-316.57 84.562-84.588 196.998-131.147 316.576-131.147 119.575 0 232.010 46.582 316.568 131.147 84.569 84.54 131.149 196.975 131.149 316.57 0 119.598-46.581 232.013-131.149 316.573-84.559 84.585-196.973 131.149-316.568 131.149v0zM635.508 603.417c-29.628 26.409-68.285 39.635-115.996 39.635-54.131 0-96.896-15.895-128.331-47.707-31.429-31.814-47.137-75.156-47.137-130.049h0.060c0.83-17.228 15.058-30.942 32.492-30.942s31.663 13.713 32.494 30.942h0.021c0 0.413 0.007 0.82 0.009 1.231 0.001 0.12 0.009 0.238 0.009 0.36 0 0.069-0.005 0.138-0.005 0.207 0.519 81.389 36.264 122.103 107.314 122.103 27.443 0 50.082-7.968 67.906-23.866s26.746-36.285 26.746-61.164c0-28.969-16.53-58.348-49.639-88.103l-24.627-21.936c-24.115-21.533-39.591-40.268-46.372-56.164-6.781-15.915-10.169-41.565-10.169-76.958l0.008-0.081c-0.081-0.901-0.129-1.81-0.129-2.731 0-16.733 13.564-30.294 30.294-30.294 15.964 0 29.031 12.345 30.2 28.010l0.074 0.089 0.335 11.158c0 36.428 17.292 68.73 51.921 96.957 57.989 47.432 86.963 92.851 86.963 136.194 0.002 42.324-14.81 76.679-44.442 103.107zM471.067 152.903c0-22.606 18.326-40.932 40.932-40.932 22.606 0 40.932 18.326 40.932 40.932 0 22.606-18.326 40.932-40.932 40.932-22.606 0-40.932-18.326-40.932-40.932z"  horiz-adv-x="1024" />

    
    <glyph glyph-name="tuandui" unicode="&#58946;" d="M417.122119 382.830361c31.657001 13.234419 65.946968 20.75265 101.914134 20.75265 35.96512 0 70.257134-7.518231 101.914134-20.75265 40.596604 33.004695 66.939575 85.055165 66.939575 143.821593 0 99.771331-75.599815 180.653453-168.853709 180.653453-93.251847 0-168.849616-80.882122-168.849616-180.653453C350.186637 467.886549 376.530632 415.835056 417.122119 382.830361zM733.928508 285.277558c20.577664 8.608052 42.871413 13.485129 66.248843 13.485129 23.3805 0 45.671179-4.876054 66.25089-13.485129 26.397207 21.443381 43.515073 55.283094 43.515073 93.498464 0 64.862263-49.142234 117.441782-109.765963 117.441782-60.619636 0-109.765963-52.580542-109.765963-117.441782C690.411389 340.560652 707.529255 306.720939 733.928508 285.277558zM970.400245 126.865665c0 99.260701-76.214822 170.216753-170.222893 170.216753-25.229614 0-49.093115-11.992125-70.63064-22.531156-47.688115 69.072145-124.095319 111.085004-210.510458 111.085004-88.086198 0-165.837003-48.188512-213.297944-119.5457-24.245194 14.213723-52.058656 32.617885-81.653695 32.617885-94.006024 0-170.222893-72.581062-170.222893-171.841763l203.439412 0c-0.00614 0-0.107447 0-0.107447 0l535.620977 0 0 0L970.400245 126.866688zM157.835771 287.039691c20.577664 8.608052 42.871413 13.484106 66.248843 13.484106s45.671179-4.876054 66.25089-13.484106c26.397207 21.443381 43.515073 55.283094 43.515073 93.500511 0 64.860217-49.142234 117.439736-109.765963 117.439736-60.619636 0-109.765963-52.580542-109.765963-117.439736C114.318652 342.322785 131.436518 308.483072 157.835771 287.039691z"  horiz-adv-x="1024" />

    
    <glyph glyph-name="yanzhengma" unicode="&#58987;" d="M567.938522 6.400013 456.060455 6.400013c-216.243019 0-391.571187 169.072697-391.571187 377.614313 0 208.513988 175.327144 377.585661 391.571187 377.585661l111.878067 0c216.243019 0 391.570163-169.072697 391.570163-377.585661C959.508685 175.47271 784.181541 6.400013 567.938522 6.400013zM577.251631 705.224002 446.746322 705.224002c-180.216501 0-326.319044-143.834896-326.319044-321.210699 0-177.403432 146.101519-321.211722 326.319044-321.211722l130.505309 0c180.216501 0 326.319044 143.807267 326.319044 321.211722C903.570675 561.390129 757.469156 705.224002 577.251631 705.224002zM707.78457 330.068693c-30.891568 0-55.93801 24.145933-55.93801 53.945633 0 29.772071 25.046443 53.94461 55.93801 53.94461s55.939033-24.172539 55.939033-53.94461C763.723603 354.213603 738.677161 330.068693 707.78457 330.068693zM511.999488 330.068693c-30.891568 0-55.939033 24.145933-55.939033 53.945633 0 29.772071 25.047466 53.94461 55.939033 53.94461s55.939033-24.172539 55.939033-53.94461C567.938522 354.213603 542.891056 330.068693 511.999488 330.068693zM316.214407 330.068693c-30.891568 0-55.939033 24.145933-55.939033 53.945633 0 29.772071 25.047466 53.94461 55.939033 53.94461 30.891568 0 55.911404-24.172539 55.911404-53.94461C372.124787 354.213603 347.104951 330.068693 316.214407 330.068693z"  horiz-adv-x="1024" />

    
    <glyph glyph-name="chaxun2" unicode="&#58954;" d="M816.459-124.79c3.041 0 6.181 0.538 9.348 1.529-9.057-1.001-18.256-1.529-27.579-1.529h18.231zM769.66 195.073c-24.048 0-43.555-19.431-43.555-43.405 0-23.975 19.507-43.405 43.555-43.405 24.072 0 43.58 19.43 43.58 43.405 0 23.974-19.506 43.405-43.58 43.405zM798.226 318.624c-108.821 0-197.041-87.845-197.041-196.241s88.219-196.291 197.041-196.291c108.795 0 197.013 87.896 197.013 196.291 0.001 108.399-88.217 196.241-197.013 196.241zM893.1 7.011c-6.006 0-11.465 2.43-15.412 6.352l-63.831 63.607c-12.979-7.644-28.042-12.087-44.198-12.087-48.12 0-87.13 38.838-87.13 86.787 0 47.923 39.010 86.786 87.13 86.786s87.133-38.862 87.133-86.786c0-16.082-4.468-31.096-12.134-44.026l63.851-63.581c3.921-3.945 6.379-9.357 6.379-15.362 0.001-11.987-9.754-21.689-21.789-21.689zM206.689 714.861c24.077 0 50.837 26.859 50.837 50.837v76.256c0 23.978-16.731 50.837-50.837 50.837-29.19 0-50.837-26.859-50.837-50.837v-76.256c-0-23.978 26.76-50.837 50.837-50.837zM435.453 714.861c41.206 0 50.838 26.859 50.838 50.837v76.256c0 23.978-14.199 50.837-50.838 50.837-35.992 0-50.837-26.859-50.837-50.837v-76.256c0-23.978 17.698-50.837 50.837-50.837zM664.217 714.861c33.112 0 50.837 26.859 50.837 50.837l-0 76.256c0 23.978-17.723 50.837-50.837 50.837-29.19 0-50.838-26.859-50.838-50.837v-76.256c0.001-23.978 26.785-50.837 50.838-50.837zM816.727-123.936c3.025 0 6.151 0.535 9.303 1.52-9.015-0.994-18.168-1.52-27.447-1.52h18.144zM551.646 122.053c0 135.829 110.559 245.942 246.936 245.942 24.573 0 48.299-3.594 70.701-10.253l-1.72 382.536c0 23.981-26.758 50.838-50.837 50.838h-50.838v-50.838c0-47.956-53.542-76.255-101.672-76.255s-101.673 28.297-101.673 76.255v50.838h-25.419v-50.838c0-47.956-53.915-76.255-101.672-76.255-77.571 0-101.672 53.715-101.672 101.672v25.42l-25.419 0v-25.419c-0.051-48.203-38.276-101.276-103.982-101.276-48.13 0-99.364 36.191-99.364 101.276v25.419h-25.419c-24.077 0-50.838-26.857-50.838-50.838v-806.332c0-23.98 26.758-57.884 50.838-57.884h718.983c-136.374 0.001-246.935 110.113-246.935 245.991zM181.271 511.516c0 0 530.159-2.333 531.524 0 24.599 0.893 53.095-14.646 53.095-50.837 0-34.205-26.757-50.837-50.837-50.837l-533.782 0c-24.078 0-50.837 12.559-50.837 50.837 0.001 32.467 26.758 50.837 50.837 50.837zM410.035 3.152h-228.764c-20.058 0-50.837 11.418-50.837 50.838 0 29.836 30.78 53.568 50.837 53.568l228.764-2.731c20.057 0 50.838-11.022 50.838-50.837 0-31.574-30.781-50.838-50.838-50.838zM460.873 206.499h-279.602c-24.078 0-50.837 15.885-50.837 50.836 0 38.575 26.757 50.837 50.837 50.837h279.601c24.075 0 50.836-18.964 50.836-50.837 0-23.979-26.759-50.836-50.835-50.836z"  horiz-adv-x="1024" />

    
    <glyph glyph-name="jiahao1" unicode="&#59001;" d="M288 448l448 0 0-128-448 0 0 128ZM448 608l128 0 0-448-128 0 0 448Z"  horiz-adv-x="1024" />

    
    <glyph glyph-name="fufei" unicode="&#58911;" d="M1022.955 389.197c0-279.335-226.446-505.78-505.781-505.78s-505.779 226.444-505.779 505.78c0 279.335 226.445 505.78 505.78 505.78s505.78-226.446 505.78-505.78zM517.175 869.451c-265.369 0-480.491-215.122-480.491-480.49s215.122-480.49 480.491-480.49c265.366 0 480.488 215.122 480.488 480.49s-215.121 480.49-480.488 480.49zM628 202.851h-270.689c-24.554 0-42.113 20.202-42.113 45.017v225.716c0 24.278 17.559 44.039 42.113 44.039h270.689c24.553 0 46.937-19.761 46.937-44.039v-58.744c0-7.088-5.753-12.848-12.85-12.848-7.095 0-12.847 5.759-12.847 12.848v58.744c0 10.288-10.684 18.343-21.242 18.343h-270.689c-10.558 0-16.418-8.054-16.418-18.343v-225.716c0-10.477 6.21-19.322 16.418-19.322h270.689c10.207 0 21.242 8.845 21.242 19.322v57.766c0 7.1 5.753 12.847 12.847 12.847 7.097 0 12.85-5.746 12.85-12.847v-57.766c-0-24.814-22.384-45.017-46.937-45.017v0zM397.066 248.057c-21.010 0-36.9 17.203-36.9 38.356l0 109.158c0 3.55 2.873 6.422 6.424 6.422 3.544 0 6.423-2.873 6.423-6.422v-109.157c0-14.064 10.126-25.507 24.053-25.507 3.544 0 6.424-2.874 6.424-6.423 0-3.552-2.881-6.426-6.424-6.426v0zM428.414 247.819h-6.423c-3.545 0-6.424 2.874-6.424 6.423s2.88 6.423 6.424 6.423h6.423c3.551 0 6.424-2.874 6.424-6.423s-2.873-6.423-6.424-6.423v0zM745.601 343.74c0-24.592-19.936-44.53-44.529-44.53h-90.812c-24.591 0-44.529 19.937-44.529 44.53v26.572c0 24.592 19.937 44.529 44.529 44.529h90.812c24.592 0 44.529-19.937 44.529-44.529v-26.572zM719.905 370.312c0 10.403-8.43 18.834-18.832 18.834h-90.812c-10.401 0-18.832-8.432-18.832-18.834v-26.572c0-10.403 8.431-18.834 18.832-18.834h90.812c10.402 0 18.832 8.431 18.832 18.834v26.572zM636.131 357.516c0-6.801-5.521-12.322-12.313-12.322-6.801 0-12.314 5.522-12.314 12.322s5.514 12.307 12.314 12.307c6.793 0 12.313-5.506 12.313-12.307v0zM597.046 494.826c-7.096 0-12.848 5.746-12.848 12.849 0 38.075-30.977 69.054-69.057 69.054-38.085 0-69.063-30.978-69.063-69.054 0-7.102-5.752-12.849-12.848-12.849-7.096 0-12.849 5.746-12.849 12.849 0 52.241 42.509 94.749 94.759 94.749 52.245 0 94.754-42.508 94.754-94.749-0-7.103-5.753-12.849-12.85-12.849v0z"  horiz-adv-x="1024" />

    
    <glyph glyph-name="huancun1" unicode="&#58915;" d="M1014.860341 384.127913c0-279.334963-226.446405-505.779322-505.781368-505.779322-279.335986 0-505.780345 226.443335-505.780345 505.779322 0 279.334963 226.445382 505.780345 505.780345 505.780345C788.414959 889.907235 1014.860341 663.46083 1014.860341 384.127913zM509.081019 864.381885c-265.36888 0-480.491379-215.122499-480.491379-480.490356 0-265.367857 215.122499-480.489332 480.491379-480.489332 265.36581 0 480.488309 215.122499 480.488309 480.489332C989.569328 649.258363 774.446829 864.381885 509.081019 864.381885zM562.428018 391.326872c-7.882528 24.579815-30.921243 42.369993-58.119699 42.369993-33.700543 0-61.020772-27.320229-61.020772-61.020772l16.643052 0c0.847298 24.927739 19.337417 44.378743 44.37772 44.378743 18.762319 0 37.484729-11.477402 43.141566-33.283034l-15.404852 0 0-11.095709 33.284057 0 15.155165 27.736715-9.607822 5.547343L562.428018 391.326872 562.428018 391.326872zM504.670569 320.743304c-18.760273 0-37.483706 11.477402-43.141566 33.283034l15.404852 0 0 11.094686-33.283034 0-15.156188-27.735691 9.607822-5.54939 8.449439 14.635325c7.882528-24.580838 30.921243-42.371016 58.119699-42.371016 33.700543 0 61.021795 27.321252 61.021795 61.020772l-16.644075 0C548.202015 340.194308 529.710872 320.743304 504.670569 320.743304L504.670569 320.743304zM512.299317 507.109876l0 8.729825c-56.720839 0-102.910834-45.081755-104.69548-101.368712-0.00921-0.271176-0.022513-1.363044-0.022513-1.363044l8.698103-2.01796C416.279427 464.118735 459.269543 507.109876 512.299317 507.109876L512.299317 507.109876zM638.872061 411.089985c-1.494027 0-2.975774-0.050142-4.451382-0.127913 0.053212 1.49198 0.085958 2.988054 0.085958 4.493338 0 69.902046-56.670697 126.57172-126.57172 126.57172-64.032362 0-116.953665-47.550992-125.391848-109.270682-49.327452-2.78237-88.471984-43.658336-88.471984-93.682659 0-51.094702 40.84015-92.650143 91.656513-93.809549l0-0.027629 257.508865 0 0 0.112564c43.771923 2.270716 78.561263 38.47836 78.561263 82.814124C721.797725 373.961366 684.669106 411.089985 638.872061 411.089985L638.872061 411.089985zM643.204739 262.833383l0.030699-0.140193L390.091998 262.69319l0 0.030699c-0.724501-0.021489-1.453095-0.030699-2.181689-0.030699-42.183751 0-76.379575 34.196847-76.379575 76.380598 0 42.184775 34.195823 76.379575 76.379575 76.379575 3.687996 0 7.319709-0.261966 10.868535-0.768503l0.042979 0.768503 0.349971 9.942443 0.095167 0c5.02341 55.604412 51.759851 99.171674 108.668978 99.171674 60.261479 0 109.11514-48.852638 109.11514-109.114117 0-8.92016-1.070378-17.588587-3.091408-25.889647l3.109828 0.726547-0.00614-0.381693c1.694595 0.599657 3.423983 1.12973 5.178953 1.591241l3.25002 0.759293c4.322445 0.89744 8.795317 1.372254 13.381775 1.372254 36.155455 0 65.468061-29.313629 65.468061-65.468061C704.340121 293.460937 677.346327 265.068284 643.204739 262.833383L643.204739 262.833383z"  horiz-adv-x="1024" />

    
    <glyph glyph-name="tongjibaobiao" unicode="&#58916;" d="M1014.860341 384.127913c0-279.334963-226.446405-505.779322-505.781368-505.779322-279.335986 0-505.780345 226.443335-505.780345 505.779322 0 279.334963 226.445382 505.780345 505.780345 505.780345C788.414959 889.907235 1014.860341 663.46083 1014.860341 384.127913zM509.081019 864.381885c-265.36888 0-480.491379-215.122499-480.491379-480.490356 0-265.367857 215.122499-480.489332 480.491379-480.489332 265.36581 0 480.488309 215.122499 480.488309 480.489332C989.569328 649.258363 774.446829 864.381885 509.081019 864.381885zM380.720559 499.612111c0 8.943696 7.101745 16.046464 16.046464 16.046464L627.727233 515.658575c8.942673 0 16.045441-7.102768 16.045441-16.046464l0-49.980321 26.306132 0L670.078807 499.612111c0 23.411199-18.940374 42.351574-42.351574 42.351574L396.767024 541.963685c-23.411199-0.26299-42.351574-19.203364-42.351574-42.351574l0-89.437985 26.306132 0L380.721583 499.612111 380.720559 499.612111zM643.772674 268.388912c0-8.944719-7.101745-16.047488-16.045441-16.047488L396.767024 252.341425c-8.943696 0-16.046464 7.101745-16.046464 16.047488l0 49.717332-26.306132 0 0-49.717332c0-23.412223 18.940374-42.351574 42.351574-42.351574L627.727233 226.037339c23.411199 0 42.351574 18.939351 42.351574 42.351574l0 89.173972L643.772674 357.562884 643.772674 268.388912 643.772674 268.388912zM694.278975 430.428426c-3.944845 6.05081-12.099572 7.891737-18.149359 3.945869l-135.735427-86.282109-78.390371 78.390371-127.053698-70.497611c-6.312776-3.419889-8.680706-11.57564-4.997827-17.887392 3.419889-6.313799 11.574616-8.679683 17.887392-4.997827l109.692285 61.027935 79.441307-79.44233 153.62282 97.855702C696.383916 416.223912 698.224844 424.378639 694.278975 430.428426L694.278975 430.428426z"  horiz-adv-x="1024" />

    
    <glyph glyph-name="caiji" unicode="&#58917;" d="M1014.860341 384.127913c0-279.334963-226.446405-505.779322-505.781368-505.779322-279.335986 0-505.780345 226.443335-505.780345 505.779322 0 279.334963 226.445382 505.780345 505.780345 505.780345C788.414959 889.907235 1014.860341 663.46083 1014.860341 384.127913zM509.081019 864.381885c-265.36888 0-480.491379-215.122499-480.491379-480.490356 0-265.367857 215.122499-480.489332 480.491379-480.489332 265.36581 0 480.488309 215.122499 480.488309 480.489332C989.569328 649.258363 774.446829 864.381885 509.081019 864.381885zM672.225703 332.149075l-60.901045 0c-15.245216 0-23.863501-8.141424-23.863501-24.558325l0-89.937358c0-18.794042 7.706519-24.558325 23.863501-24.558325l60.901045 0c16.049534 0 23.864524 8.794293 23.864524 24.558325l0 89.937358C696.090227 324.007651 686.759721 332.149075 672.225703 332.149075L672.225703 332.149075zM680.299589 217.570503c0-4.527107-3.547803-8.18338-7.949043-8.18338l-61.026912 0c-4.393054 0-7.949043 3.656273-7.949043 8.18338l0 90.020246c0 4.526083 3.547803 8.18338 7.949043 8.18338l61.026912 0c4.393054 0 7.949043-3.657296 7.949043-8.18338L680.299589 217.570503 680.299589 217.570503zM541.313118 332.149075l-60.902068 0c-15.178701 0-23.863501-5.715165-23.863501-24.558325l0-89.937358c0-18.794042 7.706519-24.558325 23.863501-24.558325l60.902068 0c16.048511 0 23.863501 8.794293 23.863501 24.558325l0 89.937358C565.176618 325.413674 559.419498 332.149075 541.313118 332.149075L541.313118 332.149075zM549.388027 217.570503c0-4.527107-3.548826-8.18338-7.950066-8.18338l-61.026912 0c-4.393054 0-7.949043 3.656273-7.949043 8.18338l0 90.020246c0 4.526083 3.547803 8.18338 7.949043 8.18338l61.026912 0c4.393054 0 7.950066-3.657296 7.950066-8.18338L549.388027 217.570503 549.388027 217.570503zM412.675342 332.149075l-60.900022 0c-15.178701 0-23.864524-5.715165-23.864524-24.558325l0-89.937358c0-18.801205 7.706519-24.558325 23.864524-24.558325l60.900022 0c16.049534 0 23.864524 8.794293 23.864524 24.558325l0 89.937358C436.539866 325.413674 430.775582 332.149075 412.675342 332.149075L412.675342 332.149075zM420.774811 217.570503c0-4.527107-3.547803-8.18338-7.949043-8.18338l-61.025888 0c-4.393054 0-7.949043 3.656273-7.949043 8.18338l0 90.020246c0 4.526083 3.547803 8.18338 7.949043 8.18338l61.025888 0c4.393054 0 7.949043-3.657296 7.949043-8.18338L420.774811 217.570503 420.774811 217.570503zM648.854413 320.844611l0 39.997969c0 17.822924-5.757121 24.559349-23.864524 24.559349L396.861168 385.401929c-15.179724 0-23.864524-5.715165-23.864524-24.559349l0-39.997969 15.914458-0.083911 0 40.090067c0 4.527107 3.548826 8.184403 7.951089 8.184403l228.279147 0c4.393054 0 7.950066-3.657296 7.950066-8.184403l0-40.090067L648.854413 320.844611 648.854413 320.844611zM558.634622 561.274496l-95.418186 0c-16.065907 0-23.890107-6.435573-23.890107-24.576745l0-40.86778c0-18.475793 5.263887-24.576745 23.890107-24.576745l95.418186 0c19.10308 0 23.889083 8.125051 23.889083 24.576745l0 40.86778C582.523705 552.137395 576.782957 561.274496 558.634622 561.274496L558.634622 561.274496zM566.582641 495.679545c0-4.526083-3.547803-8.18338-7.949043-8.18338l-95.501074 0c-4.393054 0-7.950066 3.657296-7.950066 8.18338l0 41.018206c0 4.527107 3.547803 8.18338 7.950066 8.18338l95.501074 0c4.393054 0 7.949043-3.656273 7.949043-8.18338L566.582641 495.679545 566.582641 495.679545zM502.871597 422.136575 518.853593 422.136575 518.853593 324.007651 502.871597 324.007651 502.871597 422.136575ZM592.205205 418.947953l-12.367679 34.039257c-3.614317 7.405667-6.752798 7.690146-15.546068 7.690146L449.686281 460.677357c-10.350742 0.025583-11.890818-7.840572-11.538801-6.710842l-15.530718-35.018561c-2.142803-3.464915-0.9967-6.451946 2.660596-6.451946l164.267251 0C593.200882 412.497031 594.330612 415.484062 592.205205 418.947953L592.205205 418.947953zM575.830259 425.249473l-137.146567-0.300852 9.271154 25.337061 121.92591-0.451278L575.830259 425.249473 575.830259 425.249473z"  horiz-adv-x="1024" />

    
    </font>
</defs>
</svg>
